<svg xmlns="http://www.w3.org/2000/svg" viewBox="0 0 960 200" preserveAspectRatio="xMinYMin meet" style="max-width: 100%; height: auto; display:block;"><g transform="translate(0,170)" fill="none" font-size="10" font-family="sans-serif" text-anchor="middle"><path class="domain" stroke="currentColor" d="M140.5,0.5H940.5"></path><g class="tick" opacity="1" transform="translate(140.5,0)"><line stroke="currentColor" y2="6"></line><text fill="currentColor" y="9" dy="0.71em">Aug 17</text></g><g class="tick" opacity="1" transform="translate(190.5,0)"><line stroke="currentColor" y2="6"></line><text fill="currentColor" y="9" dy="0.71em">Aug 24</text></g><g class="tick" opacity="1" transform="translate(240.5,0)"><line stroke="currentColor" y2="6"></line><text fill="currentColor" y="9" dy="0.71em">Aug 31</text></g><g class="tick" opacity="1" transform="translate(290.5,0)"><line stroke="currentColor" y2="6"></line><text fill="currentColor" y="9" dy="0.71em">Sep 07</text></g><g class="tick" opacity="1" transform="translate(340.5,0)"><line stroke="currentColor" y2="6"></line><text fill="currentColor" y="9" dy="0.71em">Sep 14</text></g><g class="tick" opacity="1" transform="translate(390.5,0)"><line stroke="currentColor" y2="6"></line><text fill="currentColor" y="9" dy="0.71em">Sep 21</text></g><g class="tick" opacity="1" transform="translate(440.5,0)"><line stroke="currentColor" y2="6"></line><text fill="currentColor" y="9" dy="0.71em">Sep 28</text></g><g class="tick" opacity="1" transform="translate(490.5,0)"><line stroke="currentColor" y2="6"></line><text fill="currentColor" y="9" dy="0.71em">Oct 05</text></g><g class="tick" opacity="1" transform="translate(540.5,0)"><line stroke="currentColor" y2="6"></line><text fill="currentColor" y="9" dy="0.71em">Oct 12</text></g><g class="tick" opacity="1" transform="translate(590.5,0)"><line stroke="currentColor" y2="6"></line><text fill="currentColor" y="9" dy="0.71em">Oct 19</text></g><g class="tick" opacity="1" transform="translate(640.5,0)"><line stroke="currentColor" y2="6"></line><text fill="currentColor" y="9" dy="0.71em">Oct 26</text></g><g class="tick" opacity="1" transform="translate(690.5,0)"><line stroke="currentColor" y2="6"></line><text fill="currentColor" y="9" dy="0.71em">Nov 02</text></g><g class="tick" opacity="1" transform="translate(740.5,0)"><line stroke="currentColor" y2="6"></line><text fill="currentColor" y="9" dy="0.71em">Nov 09</text></g><g class="tick" opacity="1" transform="translate(790.5,0)"><line stroke="currentColor" y2="6"></line><text fill="currentColor" y="9" dy="0.71em">Nov 16</text></g><g class="tick" opacity="1" transform="translate(840.5,0)"><line stroke="currentColor" y2="6"></line><text fill="currentColor" y="9" dy="0.71em">Nov 23</text></g><g class="tick" opacity="1" transform="translate(890.5,0)"><line stroke="currentColor" y2="6"></line><text fill="currentColor" y="9" dy="0.71em">Nov 30</text></g><g class="tick" opacity="1" transform="translate(940.5,0)"><line stroke="currentColor" y2="6"></line><text fill="currentColor" y="9" dy="0.71em">Dec 07</text></g></g><g transform="translate(140,0)" fill="none" font-size="10" font-family="sans-serif" text-anchor="end"><g class="tick" opacity="1" transform="translate(0,40.5)"><line stroke="currentColor" x2="0"></line><text fill="currentColor" x="-4" dy="0.32em">chasenunez/log_cold_storage</text></g><g class="tick" opacity="1" transform="translate(0,54.94444444444444)"><line stroke="currentColor" x2="0"></line><text fill="currentColor" x="-4" dy="0.32em">chasenunez/chasenunez</text></g><g class="tick" opacity="1" transform="translate(0,69.38888888888889)"><line stroke="currentColor" x2="0"></line><text fill="currentColor" x="-4" dy="0.32em">chasenunez/star_date_eawag</text></g><g class="tick" opacity="1" transform="translate(0,83.83333333333334)"><line stroke="currentColor" x2="0"></line><text fill="currentColor" x="-4" dy="0.32em">chasenunez/DEVO_validator</text></g><g class="tick" opacity="1" transform="translate(0,98.27777777777777)"><line stroke="currentColor" x2="0"></line><text fill="currentColor" x="-4" dy="0.32em">chasenunez/logue</text></g><g class="tick" opacity="1" transform="translate(0,112.72222222222223)"><line stroke="currentColor" x2="0"></line><text fill="currentColor" x="-4" dy="0.32em">chasenunez/data_HUD</text></g><g class="tick" opacity="1" transform="translate(0,127.16666666666667)"><line stroke="currentColor" x2="0"></line><text fill="currentColor" x="-4" dy="0.32em">chasenunez/DEVO_enricher</text></g><g class="tick" opacity="1" transform="translate(0,141.61111111111111)"><line stroke="currentColor" x2="0"></line><text fill="currentColor" x="-4" dy="0.32em">chasenunez/dmp_select</text></g><g class="tick" opacity="1" transform="translate(0,156.05555555555554)"><line stroke="currentColor" x2="0"></line><text fill="currentColor" x="-4" dy="0.32em">chasenunez/captains_log_eawag</text></g><g class="tick" opacity="1" transform="translate(0,170.5)"><line stroke="currentColor" x2="0"></line><text fill="currentColor" x="-4" dy="0.32em">chasenunez/sunburst_nav</text></g></g><g><g transform="translate(0,41)"><path fill="#5FED83" d="M140,0L148.333,0C156.667,0,173.333,0,190,0C206.667,0,223.333,0,240,-0.963C256.667,-1.926,273.333,-3.852,290,-13.642C306.667,-23.432,323.333,-41.086,340,-45.66C356.667,-50.235,373.333,-41.728,390,-41.247C406.667,-40.765,423.333,-48.309,440,-56.093C456.667,-63.877,473.333,-71.901,490,-70.296C506.667,-68.691,523.333,-57.457,540,-55.37C556.667,-53.284,573.333,-60.346,590,-59.864C606.667,-59.383,623.333,-51.358,640,-51.198C656.667,-51.037,673.333,-58.741,690,-57.136C706.667,-55.531,723.333,-44.617,740,-39.963C756.667,-35.309,773.333,-36.914,790,-49.593C806.667,-62.272,823.333,-86.025,840,-88.031C856.667,-90.037,873.333,-70.296,890,-59.062C906.667,-47.827,923.333,-45.099,931.667,-43.735L940,-42.37L940,0L931.667,0C923.333,0,906.667,0,890,0C873.333,0,856.667,0,840,0C823.333,0,806.667,0,790,0C773.333,0,756.667,0,740,0C723.333,0,706.667,0,690,0C673.333,0,656.667,0,640,0C623.333,0,606.667,0,590,0C573.333,0,556.667,0,540,0C523.333,0,506.667,0,490,0C473.333,0,456.667,0,440,0C423.333,0,406.667,0,390,0C373.333,0,356.667,0,340,0C323.333,0,306.667,0,290,0C273.333,0,256.667,0,240,0C223.333,0,206.667,0,190,0C173.333,0,156.667,0,148.333,0L140,0Z"></path><path fill="none" stroke="#08872B" d="M140,0L148.333,0C156.667,0,173.333,0,190,0C206.667,0,223.333,0,240,-0.963C256.667,-1.926,273.333,-3.852,290,-13.642C306.667,-23.432,323.333,-41.086,340,-45.66C356.667,-50.235,373.333,-41.728,390,-41.247C406.667,-40.765,423.333,-48.309,440,-56.093C456.667,-63.877,473.333,-71.901,490,-70.296C506.667,-68.691,523.333,-57.457,540,-55.37C556.667,-53.284,573.333,-60.346,590,-59.864C606.667,-59.383,623.333,-51.358,640,-51.198C656.667,-51.037,673.333,-58.741,690,-57.136C706.667,-55.531,723.333,-44.617,740,-39.963C756.667,-35.309,773.333,-36.914,790,-49.593C806.667,-62.272,823.333,-86.025,840,-88.031C856.667,-90.037,873.333,-70.296,890,-59.062C906.667,-47.827,923.333,-45.099,931.667,-43.735L940,-42.37"></path></g><g transform="translate(0,55.44444444444444)"><path fill="#5FED83" d="M140,0L148.333,0C156.667,0,173.333,0,190,0C206.667,0,223.333,0,240,0C256.667,0,273.333,0,290,0C306.667,0,323.333,0,340,0C356.667,0,373.333,0,390,0C406.667,0,423.333,0,440,0C456.667,0,473.333,0,490,0C506.667,0,523.333,0,540,0C556.667,0,573.333,0,590,0C606.667,0,623.333,0,640,0C656.667,0,673.333,0,690,-5.938C706.667,-11.877,723.333,-23.753,740,-28.086C756.667,-32.42,773.333,-29.21,790,-28.809C806.667,-28.407,823.333,-30.815,840,-32.019C856.667,-33.222,873.333,-33.222,890,-31.377C906.667,-29.531,923.333,-25.84,931.667,-23.994L940,-22.148L940,0L931.667,0C923.333,0,906.667,0,890,0C873.333,0,856.667,0,840,0C823.333,0,806.667,0,790,0C773.333,0,756.667,0,740,0C723.333,0,706.667,0,690,0C673.333,0,656.667,0,640,0C623.333,0,606.667,0,590,0C573.333,0,556.667,0,540,0C523.333,0,506.667,0,490,0C473.333,0,456.667,0,440,0C423.333,0,406.667,0,390,0C373.333,0,356.667,0,340,0C323.333,0,306.667,0,290,0C273.333,0,256.667,0,240,0C223.333,0,206.667,0,190,0C173.333,0,156.667,0,148.333,0L140,0Z"></path><path fill="none" stroke="#08872B" d="M140,0L148.333,0C156.667,0,173.333,0,190,0C206.667,0,223.333,0,240,0C256.667,0,273.333,0,290,0C306.667,0,323.333,0,340,0C356.667,0,373.333,0,390,0C406.667,0,423.333,0,440,0C456.667,0,473.333,0,490,0C506.667,0,523.333,0,540,0C556.667,0,573.333,0,590,0C606.667,0,623.333,0,640,0C656.667,0,673.333,0,690,-5.938C706.667,-11.877,723.333,-23.753,740,-28.086C756.667,-32.42,773.333,-29.21,790,-28.809C806.667,-28.407,823.333,-30.815,840,-32.019C856.667,-33.222,873.333,-33.222,890,-31.377C906.667,-29.531,923.333,-25.84,931.667,-23.994L940,-22.148"></path></g><g transform="translate(0,69.88888888888889)"><path fill="#5FED83" d="M140,0L148.333,0C156.667,0,173.333,0,190,-4.815C206.667,-9.63,223.333,-19.259,240,-31.617C256.667,-43.975,273.333,-59.062,290,-54.247C306.667,-49.432,323.333,-24.716,340,-12.358C356.667,0,373.333,0,390,0C406.667,0,423.333,0,440,0C456.667,0,473.333,0,490,0C506.667,0,523.333,0,540,0C556.667,0,573.333,0,590,0C606.667,0,623.333,0,640,0C656.667,0,673.333,0,690,0C706.667,0,723.333,0,740,0C756.667,0,773.333,0,790,0C806.667,0,823.333,0,840,0C856.667,0,873.333,0,890,0C906.667,0,923.333,0,931.667,0L940,0L940,0L931.667,0C923.333,0,906.667,0,890,0C873.333,0,856.667,0,840,0C823.333,0,806.667,0,790,0C773.333,0,756.667,0,740,0C723.333,0,706.667,0,690,0C673.333,0,656.667,0,640,0C623.333,0,606.667,0,590,0C573.333,0,556.667,0,540,0C523.333,0,506.667,0,490,0C473.333,0,456.667,0,440,0C423.333,0,406.667,0,390,0C373.333,0,356.667,0,340,0C323.333,0,306.667,0,290,0C273.333,0,256.667,0,240,0C223.333,0,206.667,0,190,0C173.333,0,156.667,0,148.333,0L140,0Z"></path><path fill="none" stroke="#08872B" d="M140,0L148.333,0C156.667,0,173.333,0,190,-4.815C206.667,-9.63,223.333,-19.259,240,-31.617C256.667,-43.975,273.333,-59.062,290,-54.247C306.667,-49.432,323.333,-24.716,340,-12.358C356.667,0,373.333,0,390,0C406.667,0,423.333,0,440,0C456.667,0,473.333,0,490,0C506.667,0,523.333,0,540,0C556.667,0,573.333,0,590,0C606.667,0,623.333,0,640,0C656.667,0,673.333,0,690,0C706.667,0,723.333,0,740,0C756.667,0,773.333,0,790,0C806.667,0,823.333,0,840,0C856.667,0,873.333,0,890,0C906.667,0,923.333,0,931.667,0L940,0"></path></g><g transform="translate(0,84.33333333333334)"><path fill="#5FED83" d="M140,-25.037L148.333,-20.864C156.667,-16.691,173.333,-8.346,190,-6.179C206.667,-4.012,223.333,-8.025,240,-9.228C256.667,-10.432,273.333,-8.827,290,-7.222C306.667,-5.617,323.333,-4.012,340,-2.809C356.667,-1.605,373.333,-0.802,390,-0.401C406.667,0,423.333,0,440,0C456.667,0,473.333,0,490,0C506.667,0,523.333,0,540,0C556.667,0,573.333,0,590,0C606.667,0,623.333,0,640,0C656.667,0,673.333,0,690,0C706.667,0,723.333,0,740,-0.883C756.667,-1.765,773.333,-3.531,790,-3.772C806.667,-4.012,823.333,-2.728,840,-1.926C856.667,-1.123,873.333,-0.802,890,-0.562C906.667,-0.321,923.333,-0.16,931.667,-0.08L940,0L940,0L931.667,0C923.333,0,906.667,0,890,0C873.333,0,856.667,0,840,0C823.333,0,806.667,0,790,0C773.333,0,756.667,0,740,0C723.333,0,706.667,0,690,0C673.333,0,656.667,0,640,0C623.333,0,606.667,0,590,0C573.333,0,556.667,0,540,0C523.333,0,506.667,0,490,0C473.333,0,456.667,0,440,0C423.333,0,406.667,0,390,0C373.333,0,356.667,0,340,0C323.333,0,306.667,0,290,0C273.333,0,256.667,0,240,0C223.333,0,206.667,0,190,0C173.333,0,156.667,0,148.333,0L140,0Z"></path><path fill="none" stroke="#08872B" d="M140,-25.037L148.333,-20.864C156.667,-16.691,173.333,-8.346,190,-6.179C206.667,-4.012,223.333,-8.025,240,-9.228C256.667,-10.432,273.333,-8.827,290,-7.222C306.667,-5.617,323.333,-4.012,340,-2.809C356.667,-1.605,373.333,-0.802,390,-0.401C406.667,0,423.333,0,440,0C456.667,0,473.333,0,490,0C506.667,0,523.333,0,540,0C556.667,0,573.333,0,590,0C606.667,0,623.333,0,640,0C656.667,0,673.333,0,690,0C706.667,0,723.333,0,740,-0.883C756.667,-1.765,773.333,-3.531,790,-3.772C806.667,-4.012,823.333,-2.728,840,-1.926C856.667,-1.123,873.333,-0.802,890,-0.562C906.667,-0.321,923.333,-0.16,931.667,-0.08L940,0"></path></g><g transform="translate(0,98.77777777777777)"><path fill="#5FED83" d="M140,0L148.333,0C156.667,0,173.333,0,190,0C206.667,0,223.333,0,240,-3.932C256.667,-7.864,273.333,-15.728,290,-15.728C306.667,-15.728,323.333,-7.864,340,-4.012C356.667,-0.16,373.333,-0.321,390,-0.802C406.667,-1.284,423.333,-2.086,440,-2.809C456.667,-3.531,473.333,-4.173,490,-3.932C506.667,-3.691,523.333,-2.568,540,-1.765C556.667,-0.963,573.333,-0.481,590,-0.241C606.667,0,623.333,0,640,0C656.667,0,673.333,0,690,0C706.667,0,723.333,0,740,0C756.667,0,773.333,0,790,-0.16C806.667,-0.321,823.333,-0.642,840,-0.722C856.667,-0.802,873.333,-0.642,890,-0.481C906.667,-0.321,923.333,-0.16,931.667,-0.08L940,0L940,0L931.667,0C923.333,0,906.667,0,890,0C873.333,0,856.667,0,840,0C823.333,0,806.667,0,790,0C773.333,0,756.667,0,740,0C723.333,0,706.667,0,690,0C673.333,0,656.667,0,640,0C623.333,0,606.667,0,590,0C573.333,0,556.667,0,540,0C523.333,0,506.667,0,490,0C473.333,0,456.667,0,440,0C423.333,0,406.667,0,390,0C373.333,0,356.667,0,340,0C323.333,0,306.667,0,290,0C273.333,0,256.667,0,240,0C223.333,0,206.667,0,190,0C173.333,0,156.667,0,148.333,0L140,0Z"></path><path fill="none" stroke="#08872B" d="M140,0L148.333,0C156.667,0,173.333,0,190,0C206.667,0,223.333,0,240,-3.932C256.667,-7.864,273.333,-15.728,290,-15.728C306.667,-15.728,323.333,-7.864,340,-4.012C356.667,-0.16,373.333,-0.321,390,-0.802C406.667,-1.284,423.333,-2.086,440,-2.809C456.667,-3.531,473.333,-4.173,490,-3.932C506.667,-3.691,523.333,-2.568,540,-1.765C556.667,-0.963,573.333,-0.481,590,-0.241C606.667,0,623.333,0,640,0C656.667,0,673.333,0,690,0C706.667,0,723.333,0,740,0C756.667,0,773.333,0,790,-0.16C806.667,-0.321,823.333,-0.642,840,-0.722C856.667,-0.802,873.333,-0.642,890,-0.481C906.667,-0.321,923.333,-0.16,931.667,-0.08L940,0"></path></g><g transform="translate(0,113.22222222222223)"><path fill="#5FED83" d="M140,0L148.333,0C156.667,0,173.333,0,190,0C206.667,0,223.333,0,240,0C256.667,0,273.333,0,290,0C306.667,0,323.333,0,340,0C356.667,0,373.333,0,390,0C406.667,0,423.333,0,440,0C456.667,0,473.333,0,490,0C506.667,0,523.333,0,540,0C556.667,0,573.333,0,590,0C606.667,0,623.333,0,640,-2.488C656.667,-4.975,673.333,-9.951,690,-12.037C706.667,-14.123,723.333,-13.321,740,-10.833C756.667,-8.346,773.333,-4.173,790,-2.086C806.667,0,823.333,0,840,-0.16C856.667,-0.321,873.333,-0.642,890,-0.642C906.667,-0.642,923.333,-0.321,931.667,-0.16L940,0L940,0L931.667,0C923.333,0,906.667,0,890,0C873.333,0,856.667,0,840,0C823.333,0,806.667,0,790,0C773.333,0,756.667,0,740,0C723.333,0,706.667,0,690,0C673.333,0,656.667,0,640,0C623.333,0,606.667,0,590,0C573.333,0,556.667,0,540,0C523.333,0,506.667,0,490,0C473.333,0,456.667,0,440,0C423.333,0,406.667,0,390,0C373.333,0,356.667,0,340,0C323.333,0,306.667,0,290,0C273.333,0,256.667,0,240,0C223.333,0,206.667,0,190,0C173.333,0,156.667,0,148.333,0L140,0Z"></path><path fill="none" stroke="#08872B" d="M140,0L148.333,0C156.667,0,173.333,0,190,0C206.667,0,223.333,0,240,0C256.667,0,273.333,0,290,0C306.667,0,323.333,0,340,0C356.667,0,373.333,0,390,0C406.667,0,423.333,0,440,0C456.667,0,473.333,0,490,0C506.667,0,523.333,0,540,0C556.667,0,573.333,0,590,0C606.667,0,623.333,0,640,-2.488C656.667,-4.975,673.333,-9.951,690,-12.037C706.667,-14.123,723.333,-13.321,740,-10.833C756.667,-8.346,773.333,-4.173,790,-2.086C806.667,0,823.333,0,840,-0.16C856.667,-0.321,873.333,-0.642,890,-0.642C906.667,-0.642,923.333,-0.321,931.667,-0.16L940,0"></path></g><g transform="translate(0,127.66666666666667)"><path fill="#5FED83" d="M140,0L148.333,0C156.667,0,173.333,0,190,0C206.667,0,223.333,0,240,-0.16C256.667,-0.321,273.333,-0.642,290,-3.049C306.667,-5.457,323.333,-9.951,340,-9.951C356.667,-9.951,373.333,-5.457,390,-3.049C406.667,-0.642,423.333,-0.321,440,-0.16C456.667,0,473.333,0,490,-0.08C506.667,-0.16,523.333,-0.321,540,-0.321C556.667,-0.321,573.333,-0.16,590,-0.16C606.667,-0.16,623.333,-0.321,640,-0.321C656.667,-0.321,673.333,-0.16,690,-0.08C706.667,0,723.333,0,740,-0.963C756.667,-1.926,773.333,-3.852,790,-4.012C806.667,-4.173,823.333,-2.568,840,-1.685C856.667,-0.802,873.333,-0.642,890,-0.481C906.667,-0.321,923.333,-0.16,931.667,-0.08L940,0L940,0L931.667,0C923.333,0,906.667,0,890,0C873.333,0,856.667,0,840,0C823.333,0,806.667,0,790,0C773.333,0,756.667,0,740,0C723.333,0,706.667,0,690,0C673.333,0,656.667,0,640,0C623.333,0,606.667,0,590,0C573.333,0,556.667,0,540,0C523.333,0,506.667,0,490,0C473.333,0,456.667,0,440,0C423.333,0,406.667,0,390,0C373.333,0,356.667,0,340,0C323.333,0,306.667,0,290,0C273.333,0,256.667,0,240,0C223.333,0,206.667,0,190,0C173.333,0,156.667,0,148.333,0L140,0Z"></path><path fill="none" stroke="#08872B" d="M140,0L148.333,0C156.667,0,173.333,0,190,0C206.667,0,223.333,0,240,-0.16C256.667,-0.321,273.333,-0.642,290,-3.049C306.667,-5.457,323.333,-9.951,340,-9.951C356.667,-9.951,373.333,-5.457,390,-3.049C406.667,-0.642,423.333,-0.321,440,-0.16C456.667,0,473.333,0,490,-0.08C506.667,-0.16,523.333,-0.321,540,-0.321C556.667,-0.321,573.333,-0.16,590,-0.16C606.667,-0.16,623.333,-0.321,640,-0.321C656.667,-0.321,673.333,-0.16,690,-0.08C706.667,0,723.333,0,740,-0.963C756.667,-1.926,773.333,-3.852,790,-4.012C806.667,-4.173,823.333,-2.568,840,-1.685C856.667,-0.802,873.333,-0.642,890,-0.481C906.667,-0.321,923.333,-0.16,931.667,-0.08L940,0"></path></g><g transform="translate(0,142.11111111111111)"><path fill="#5FED83" d="M140,-8.667L148.333,-7.222C156.667,-5.778,173.333,-2.889,190,-1.444C206.667,0,223.333,0,240,-0.16C256.667,-0.321,273.333,-0.642,290,-2.247C306.667,-3.852,323.333,-6.741,340,-6.58C356.667,-6.42,373.333,-3.21,390,-1.605C406.667,0,423.333,0,440,0C456.667,0,473.333,0,490,0C506.667,0,523.333,0,540,0C556.667,0,573.333,0,590,0C606.667,0,623.333,0,640,0C656.667,0,673.333,0,690,0C706.667,0,723.333,0,740,0C756.667,0,773.333,0,790,0C806.667,0,823.333,0,840,0C856.667,0,873.333,0,890,0C906.667,0,923.333,0,931.667,0L940,0L940,0L931.667,0C923.333,0,906.667,0,890,0C873.333,0,856.667,0,840,0C823.333,0,806.667,0,790,0C773.333,0,756.667,0,740,0C723.333,0,706.667,0,690,0C673.333,0,656.667,0,640,0C623.333,0,606.667,0,590,0C573.333,0,556.667,0,540,0C523.333,0,506.667,0,490,0C473.333,0,456.667,0,440,0C423.333,0,406.667,0,390,0C373.333,0,356.667,0,340,0C323.333,0,306.667,0,290,0C273.333,0,256.667,0,240,0C223.333,0,206.667,0,190,0C173.333,0,156.667,0,148.333,0L140,0Z"></path><path fill="none" stroke="#08872B" d="M140,-8.667L148.333,-7.222C156.667,-5.778,173.333,-2.889,190,-1.444C206.667,0,223.333,0,240,-0.16C256.667,-0.321,273.333,-0.642,290,-2.247C306.667,-3.852,323.333,-6.741,340,-6.58C356.667,-6.42,373.333,-3.21,390,-1.605C406.667,0,423.333,0,440,0C456.667,0,473.333,0,490,0C506.667,0,523.333,0,540,0C556.667,0,573.333,0,590,0C606.667,0,623.333,0,640,0C656.667,0,673.333,0,690,0C706.667,0,723.333,0,740,0C756.667,0,773.333,0,790,0C806.667,0,823.333,0,840,0C856.667,0,873.333,0,890,0C906.667,0,923.333,0,931.667,0L940,0"></path></g><g transform="translate(0,156.55555555555554)"><path fill="#5FED83" d="M140,-0.963L148.333,-1.043C156.667,-1.123,173.333,-1.284,190,-2.809C206.667,-4.333,223.333,-7.222,240,-7.302C256.667,-7.383,273.333,-4.654,290,-2.969C306.667,-1.284,323.333,-0.642,340,-0.321C356.667,0,373.333,0,390,0C406.667,0,423.333,0,440,0C456.667,0,473.333,0,490,0C506.667,0,523.333,0,540,0C556.667,0,573.333,0,590,0C606.667,0,623.333,0,640,0C656.667,0,673.333,0,690,0C706.667,0,723.333,0,740,0C756.667,0,773.333,0,790,0C806.667,0,823.333,0,840,0C856.667,0,873.333,0,890,0C906.667,0,923.333,0,931.667,0L940,0L940,0L931.667,0C923.333,0,906.667,0,890,0C873.333,0,856.667,0,840,0C823.333,0,806.667,0,790,0C773.333,0,756.667,0,740,0C723.333,0,706.667,0,690,0C673.333,0,656.667,0,640,0C623.333,0,606.667,0,590,0C573.333,0,556.667,0,540,0C523.333,0,506.667,0,490,0C473.333,0,456.667,0,440,0C423.333,0,406.667,0,390,0C373.333,0,356.667,0,340,0C323.333,0,306.667,0,290,0C273.333,0,256.667,0,240,0C223.333,0,206.667,0,190,0C173.333,0,156.667,0,148.333,0L140,0Z"></path><path fill="none" stroke="#08872B" d="M140,-0.963L148.333,-1.043C156.667,-1.123,173.333,-1.284,190,-2.809C206.667,-4.333,223.333,-7.222,240,-7.302C256.667,-7.383,273.333,-4.654,290,-2.969C306.667,-1.284,323.333,-0.642,340,-0.321C356.667,0,373.333,0,390,0C406.667,0,423.333,0,440,0C456.667,0,473.333,0,490,0C506.667,0,523.333,0,540,0C556.667,0,573.333,0,590,0C606.667,0,623.333,0,640,0C656.667,0,673.333,0,690,0C706.667,0,723.333,0,740,0C756.667,0,773.333,0,790,0C806.667,0,823.333,0,840,0C856.667,0,873.333,0,890,0C906.667,0,923.333,0,931.667,0L940,0"></path></g><g transform="translate(0,171)"><path fill="#5FED83" d="M140,0L148.333,0C156.667,0,173.333,0,190,-1.123C206.667,-2.247,223.333,-4.494,240,-4.574C256.667,-4.654,273.333,-2.568,290,-1.444C306.667,-0.321,323.333,-0.16,340,-0.08C356.667,0,373.333,0,390,0C406.667,0,423.333,0,440,0C456.667,0,473.333,0,490,0C506.667,0,523.333,0,540,-0.241C556.667,-0.481,573.333,-0.963,590,-0.963C606.667,-0.963,623.333,-0.481,640,-0.883C656.667,-1.284,673.333,-2.568,690,-2.568C706.667,-2.568,723.333,-1.284,740,-0.642C756.667,0,773.333,0,790,0C806.667,0,823.333,0,840,0C856.667,0,873.333,0,890,-0.08C906.667,-0.16,923.333,-0.321,931.667,-0.401L940,-0.481L940,0L931.667,0C923.333,0,906.667,0,890,0C873.333,0,856.667,0,840,0C823.333,0,806.667,0,790,0C773.333,0,756.667,0,740,0C723.333,0,706.667,0,690,0C673.333,0,656.667,0,640,0C623.333,0,606.667,0,590,0C573.333,0,556.667,0,540,0C523.333,0,506.667,0,490,0C473.333,0,456.667,0,440,0C423.333,0,406.667,0,390,0C373.333,0,356.667,0,340,0C323.333,0,306.667,0,290,0C273.333,0,256.667,0,240,0C223.333,0,206.667,0,190,0C173.333,0,156.667,0,148.333,0L140,0Z"></path><path fill="none" stroke="#08872B" d="M140,0L148.333,0C156.667,0,173.333,0,190,-1.123C206.667,-2.247,223.333,-4.494,240,-4.574C256.667,-4.654,273.333,-2.568,290,-1.444C306.667,-0.321,323.333,-0.16,340,-0.08C356.667,0,373.333,0,390,0C406.667,0,423.333,0,440,0C456.667,0,473.333,0,490,0C506.667,0,523.333,0,540,-0.241C556.667,-0.481,573.333,-0.963,590,-0.963C606.667,-0.963,623.333,-0.481,640,-0.883C656.667,-1.284,673.333,-2.568,690,-2.568C706.667,-2.568,723.333,-1.284,740,-0.642C756.667,0,773.333,0,790,0C806.667,0,823.333,0,840,0C856.667,0,873.333,0,890,-0.08C906.667,-0.16,923.333,-0.321,931.667,-0.401L940,-0.481"></path></g></g><text x="140" y="20" font-size="14" font-weight="600">Top 10 repos — commit density (last 365 days)</text></svg>