<?xml version="1.0" encoding="UTF-8"?>
<svg xmlns="http://www.w3.org/2000/svg" width="100" height="10" viewBox="0 0 100 10" preserveAspectRatio="xMidYMid meet">
<defs>
<style type="text/css"><![CDATA[
:root { --line: #000000; }
@media (prefers-color-scheme: dark) { :root { --line: #ffffff; } }
path { stroke: var(--line); }
text { fill: var(--line); }
svg { background: transparent; }
]]></style>
</defs>
<g>
<path d="M 8.00,1.77 L 8.54,1.77 L 9.08,1.77 L 9.62,1.77 L 10.16,1.77 L 10.69,1.77 L 11.23,1.77 L 11.77,1.77 L 12.31,1.77 L 12.85,1.77 L 13.39,1.77 L 13.93,1.77 L 14.47,1.77 L 15.01,1.77 L 15.54,1.77 L 16.08,1.77 L 16.62,1.77 L 17.16,1.77 L 17.70,1.77 L 18.24,1.77 L 18.78,1.77 L 19.32,1.77 L 19.86,1.77 L 20.40,1.77 L 20.93,1.77 L 21.47,1.77 L 22.01,1.77 L 22.55,1.77 L 23.09,1.77 L 23.63,1.77 L 24.17,1.77 L 24.71,1.77 L 25.25,1.77 L 25.78,1.77 L 26.32,1.77 L 26.86,1.77 L 27.40,1.77 L 27.94,1.77 L 28.48,1.77 L 29.02,1.77 L 29.56,1.77 L 30.10,1.77 L 30.63,1.77 L 31.17,1.77 L 31.71,1.77 L 32.25,1.77 L 32.79,1.77 L 33.33,1.77 L 33.87,1.77 L 34.41,1.77 L 34.95,1.77 L 35.49,1.77 L 36.02,1.77 L 36.56,1.77 L 37.10,1.77 L 37.64,1.77 L 38.18,1.77 L 38.72,1.77 L 39.26,1.77 L 39.80,1.77 L 40.34,1.77 L 40.87,1.77 L 41.41,1.77 L 41.95,1.77 L 42.49,1.77 L 43.03,1.77 L 43.57,1.77 L 44.11,1.77 L 44.65,1.77 L 45.19,1.77 L 45.72,1.77 L 46.26,1.77 L 46.80,1.77 L 47.34,1.77 L 47.88,1.77 L 48.42,1.77 L 48.96,1.77 L 49.50,1.77 L 50.04,1.77 L 50.57,1.77 L 51.11,1.77 L 51.65,1.77 L 52.19,1.77 L 52.73,1.77 L 53.27,1.77 L 53.81,1.77 L 54.35,1.77 L 54.89,1.77 L 55.43,1.77 L 55.96,1.77 L 56.50,1.77 L 57.04,1.77 L 57.58,1.77 L 58.12,1.77 L 58.66,1.77 L 59.20,1.77 L 59.74,1.77 L 60.28,1.77 L 60.81,1.77 L 61.35,1.77 L 61.89,1.77 L 62.43,1.77 L 62.97,1.77 L 63.51,1.77 L 64.05,1.77 L 64.59,1.77 L 65.13,1.77 L 65.66,1.77 L 66.20,1.77 L 66.74,1.77 L 67.28,1.77 L 67.82,1.77 L 68.36,1.77 L 68.90,1.77 L 69.44,1.77 L 69.98,1.77 L 70.51,1.77 L 71.05,1.77 L 71.59,1.77 L 72.13,1.77 L 72.67,1.77 L 73.21,1.77 L 73.75,1.77 L 74.29,1.77 L 74.83,1.77 L 75.37,1.77 L 75.90,1.77 L 76.44,1.77 L 76.98,1.77 L 77.52,1.77 L 78.06,1.77 L 78.60,1.77 L 79.14,1.77 L 79.68,1.77 L 80.22,1.77 L 80.75,1.77 L 81.29,1.77 L 81.83,1.77 L 82.37,1.77 L 82.91,1.77 L 83.45,1.77 L 83.99,1.77 L 84.53,1.77 L 85.07,1.77 L 85.60,1.77 L 86.14,1.77 L 86.68,1.77 L 87.22,1.77 L 87.76,1.77 L 88.30,1.77 L 88.84,1.77 L 89.38,1.77 L 89.92,1.77 L 90.46,1.77 L 90.99,1.77 L 91.53,1.77 L 92.07,1.77 L 92.61,1.77 L 93.15,1.77 L 93.69,1.77 L 94.23,1.77 L 94.77,1.77 L 95.31,1.77 L 95.84,1.77 L 96.38,1.77 L 96.92,1.77 L 97.46,1.77 L 98.00,1.77" stroke-width="1.5" stroke-linejoin="round" stroke-linecap="round" fill="none"/>
<path d="M 8.00,2.55 L 8.54,2.55 L 9.08,2.55 L 9.62,2.55 L 10.16,2.55 L 10.69,2.55 L 11.23,2.55 L 11.77,2.55 L 12.31,2.55 L 12.85,2.55 L 13.39,2.55 L 13.93,2.55 L 14.47,2.55 L 15.01,2.55 L 15.54,2.55 L 16.08,2.55 L 16.62,2.55 L 17.16,2.55 L 17.70,2.55 L 18.24,2.55 L 18.78,2.55 L 19.32,2.55 L 19.86,2.55 L 20.40,2.55 L 20.93,2.55 L 21.47,2.55 L 22.01,2.55 L 22.55,2.55 L 23.09,2.55 L 23.63,2.55 L 24.17,2.55 L 24.71,2.55 L 25.25,2.55 L 25.78,2.55 L 26.32,2.55 L 26.86,2.55 L 27.40,2.55 L 27.94,2.55 L 28.48,2.55 L 29.02,2.55 L 29.56,2.55 L 30.10,2.55 L 30.63,2.55 L 31.17,2.55 L 31.71,2.55 L 32.25,2.55 L 32.79,2.55 L 33.33,2.55 L 33.87,2.55 L 34.41,2.55 L 34.95,2.55 L 35.49,2.55 L 36.02,2.55 L 36.56,2.55 L 37.10,2.55 L 37.64,2.55 L 38.18,2.55 L 38.72,2.55 L 39.26,2.55 L 39.80,2.55 L 40.34,2.55 L 40.87,2.55 L 41.41,2.55 L 41.95,2.55 L 42.49,2.55 L 43.03,2.55 L 43.57,2.55 L 44.11,2.55 L 44.65,2.55 L 45.19,2.55 L 45.72,2.55 L 46.26,2.55 L 46.80,2.55 L 47.34,2.55 L 47.88,2.55 L 48.42,2.55 L 48.96,2.55 L 49.50,2.55 L 50.04,2.55 L 50.57,2.55 L 51.11,2.55 L 51.65,2.55 L 52.19,2.55 L 52.73,2.55 L 53.27,2.55 L 53.81,2.55 L 54.35,2.55 L 54.89,2.55 L 55.43,2.55 L 55.96,2.55 L 56.50,2.55 L 57.04,2.55 L 57.58,2.55 L 58.12,2.55 L 58.66,2.55 L 59.20,2.55 L 59.74,2.55 L 60.28,2.55 L 60.81,2.55 L 61.35,2.55 L 61.89,2.55 L 62.43,2.55 L 62.97,2.55 L 63.51,2.55 L 64.05,2.55 L 64.59,2.55 L 65.13,2.55 L 65.66,2.55 L 66.20,2.55 L 66.74,2.55 L 67.28,2.55 L 67.82,2.55 L 68.36,2.55 L 68.90,2.55 L 69.44,2.55 L 69.98,2.55 L 70.51,2.55 L 71.05,2.55 L 71.59,2.55 L 72.13,2.55 L 72.67,2.55 L 73.21,2.55 L 73.75,2.55 L 74.29,2.55 L 74.83,2.55 L 75.37,2.55 L 75.90,2.55 L 76.44,2.55 L 76.98,2.55 L 77.52,2.55 L 78.06,2.55 L 78.60,2.55 L 79.14,2.55 L 79.68,2.55 L 80.22,2.55 L 80.75,2.55 L 81.29,2.55 L 81.83,2.55 L 82.37,2.55 L 82.91,2.55 L 83.45,2.55 L 83.99,2.55 L 84.53,2.55 L 85.07,2.55 L 85.60,2.55 L 86.14,2.55 L 86.68,2.55 L 87.22,2.55 L 87.76,2.54 L 88.30,2.54 L 88.84,2.54 L 89.38,2.54 L 89.92,2.54 L 90.46,2.53 L 90.99,2.52 L 91.53,2.51 L 92.07,2.48 L 92.61,2.45 L 93.15,2.42 L 93.69,2.38 L 94.23,2.31 L 94.77,2.24 L 95.31,2.17 L 95.84,2.11 L 96.38,2.06 L 96.92,2.02 L 97.46,1.97 L 98.00,1.93" stroke-width="1.5" stroke-linejoin="round" stroke-linecap="round" fill="none"/>
<path d="M 8.00,3.31 L 8.54,3.30 L 9.08,3.29 L 9.62,3.28 L 10.16,3.27 L 10.69,3.24 L 11.23,3.21 L 11.77,3.18 L 12.31,3.15 L 12.85,3.11 L 13.39,3.07 L 13.93,3.03 L 14.47,2.99 L 15.01,2.97 L 15.54,2.94 L 16.08,2.92 L 16.62,2.89 L 17.16,2.86 L 17.70,2.84 L 18.24,2.81 L 18.78,2.79 L 19.32,2.77 L 19.86,2.75 L 20.40,2.73 L 20.93,2.71 L 21.47,2.72 L 22.01,2.75 L 22.55,2.78 L 23.09,2.81 L 23.63,2.86 L 24.17,2.92 L 24.71,2.98 L 25.25,3.04 L 25.78,3.09 L 26.32,3.13 L 26.86,3.16 L 27.40,3.20 L 27.94,3.22 L 28.48,3.22 L 29.02,3.23 L 29.56,3.23 L 30.10,3.23 L 30.63,3.22 L 31.17,3.21 L 31.71,3.20 L 32.25,3.19 L 32.79,3.18 L 33.33,3.17 L 33.87,3.16 L 34.41,3.15 L 34.95,3.16 L 35.49,3.17 L 36.02,3.17 L 36.56,3.18 L 37.10,3.19 L 37.64,3.20 L 38.18,3.21 L 38.72,3.23 L 39.26,3.23 L 39.80,3.23 L 40.34,3.23 L 40.87,3.23 L 41.41,3.22 L 41.95,3.20 L 42.49,3.19 L 43.03,3.17 L 43.57,3.16 L 44.11,3.14 L 44.65,3.13 L 45.19,3.11 L 45.72,3.11 L 46.26,3.11 L 46.80,3.11 L 47.34,3.10 L 47.88,3.11 L 48.42,3.12 L 48.96,3.13 L 49.50,3.14 L 50.04,3.15 L 50.57,3.17 L 51.11,3.19 L 51.65,3.21 L 52.19,3.22 L 52.73,3.24 L 53.27,3.26 L 53.81,3.27 L 54.35,3.29 L 54.89,3.29 L 55.43,3.30 L 55.96,3.31 L 56.50,3.31 L 57.04,3.31 L 57.58,3.31 L 58.12,3.31 L 58.66,3.30 L 59.20,3.29 L 59.74,3.29 L 60.28,3.28 L 60.81,3.27 L 61.35,3.26 L 61.89,3.26 L 62.43,3.25 L 62.97,3.24 L 63.51,3.24 L 64.05,3.24 L 64.59,3.24 L 65.13,3.24 L 65.66,3.25 L 66.20,3.26 L 66.74,3.27 L 67.28,3.28 L 67.82,3.28 L 68.36,3.29 L 68.90,3.30 L 69.44,3.30 L 69.98,3.31 L 70.51,3.31 L 71.05,3.31 L 71.59,3.32 L 72.13,3.32 L 72.67,3.32 L 73.21,3.32 L 73.75,3.32 L 74.29,3.32 L 74.83,3.32 L 75.37,3.32 L 75.90,3.32 L 76.44,3.32 L 76.98,3.32 L 77.52,3.32 L 78.06,3.32 L 78.60,3.32 L 79.14,3.32 L 79.68,3.32 L 80.22,3.32 L 80.75,3.32 L 81.29,3.32 L 81.83,3.32 L 82.37,3.32 L 82.91,3.32 L 83.45,3.32 L 83.99,3.32 L 84.53,3.32 L 85.07,3.32 L 85.60,3.32 L 86.14,3.32 L 86.68,3.32 L 87.22,3.32 L 87.76,3.32 L 88.30,3.32 L 88.84,3.32 L 89.38,3.32 L 89.92,3.32 L 90.46,3.32 L 90.99,3.32 L 91.53,3.31 L 92.07,3.31 L 92.61,3.31 L 93.15,3.31 L 93.69,3.31 L 94.23,3.31 L 94.77,3.31 L 95.31,3.30 L 95.84,3.30 L 96.38,3.30 L 96.92,3.31 L 97.46,3.31 L 98.00,3.31" stroke-width="1.5" stroke-linejoin="round" stroke-linecap="round" fill="none"/>
<path d="M 8.00,4.08 L 8.54,4.07 L 9.08,4.06 L 9.62,4.05 L 10.16,4.04 L 10.69,4.00 L 11.23,3.96 L 11.77,3.92 L 12.31,3.89 L 12.85,3.82 L 13.39,3.75 L 13.93,3.68 L 14.47,3.61 L 15.01,3.58 L 15.54,3.54 L 16.08,3.51 L 16.62,3.48 L 17.16,3.51 L 17.70,3.56 L 18.24,3.61 L 18.78,3.66 L 19.32,3.72 L 19.86,3.79 L 20.40,3.86 L 20.93,3.92 L 21.47,3.97 L 22.01,4.00 L 22.55,4.02 L 23.09,4.05 L 23.63,4.07 L 24.17,4.07 L 24.71,4.08 L 25.25,4.08 L 25.78,4.08 L 26.32,4.08 L 26.86,4.07 L 27.40,4.06 L 27.94,4.05 L 28.48,4.04 L 29.02,4.02 L 29.56,4.00 L 30.10,3.98 L 30.63,3.96 L 31.17,3.94 L 31.71,3.92 L 32.25,3.91 L 32.79,3.91 L 33.33,3.91 L 33.87,3.91 L 34.41,3.91 L 34.95,3.93 L 35.49,3.95 L 36.02,3.97 L 36.56,3.99 L 37.10,4.01 L 37.64,4.02 L 38.18,4.04 L 38.72,4.06 L 39.26,4.07 L 39.80,4.07 L 40.34,4.08 L 40.87,4.08 L 41.41,4.08 L 41.95,4.08 L 42.49,4.07 L 43.03,4.07 L 43.57,4.05 L 44.11,4.02 L 44.65,4.00 L 45.19,3.98 L 45.72,3.93 L 46.26,3.87 L 46.80,3.82 L 47.34,3.76 L 47.88,3.72 L 48.42,3.68 L 48.96,3.65 L 49.50,3.61 L 50.04,3.61 L 50.57,3.63 L 51.11,3.66 L 51.65,3.68 L 52.19,3.71 L 52.73,3.74 L 53.27,3.77 L 53.81,3.80 L 54.35,3.82 L 54.89,3.83 L 55.43,3.84 L 55.96,3.85 L 56.50,3.86 L 57.04,3.88 L 57.58,3.90 L 58.12,3.92 L 58.66,3.94 L 59.20,3.97 L 59.74,3.99 L 60.28,4.01 L 60.81,4.03 L 61.35,4.04 L 61.89,4.04 L 62.43,4.05 L 62.97,4.05 L 63.51,4.04 L 64.05,4.03 L 64.59,4.02 L 65.13,4.01 L 65.66,4.01 L 66.20,4.00 L 66.74,3.99 L 67.28,3.98 L 67.82,3.99 L 68.36,4.00 L 68.90,4.01 L 69.44,4.01 L 69.98,4.03 L 70.51,4.04 L 71.05,4.05 L 71.59,4.06 L 72.13,4.07 L 72.67,4.07 L 73.21,4.08 L 73.75,4.09 L 74.29,4.09 L 74.83,4.09 L 75.37,4.09 L 75.90,4.09 L 76.44,4.09 L 76.98,4.09 L 77.52,4.09 L 78.06,4.09 L 78.60,4.09 L 79.14,4.09 L 79.68,4.09 L 80.22,4.09 L 80.75,4.09 L 81.29,4.09 L 81.83,4.09 L 82.37,4.09 L 82.91,4.09 L 83.45,4.09 L 83.99,4.09 L 84.53,4.09 L 85.07,4.09 L 85.60,4.09 L 86.14,4.09 L 86.68,4.09 L 87.22,4.09 L 87.76,4.09 L 88.30,4.09 L 88.84,4.09 L 89.38,4.09 L 89.92,4.08 L 90.46,4.08 L 90.99,4.08 L 91.53,4.08 L 92.07,4.07 L 92.61,4.06 L 93.15,4.06 L 93.69,4.05 L 94.23,4.05 L 94.77,4.04 L 95.31,4.04 L 95.84,4.04 L 96.38,4.04 L 96.92,4.04 L 97.46,4.05 L 98.00,4.05" stroke-width="1.5" stroke-linejoin="round" stroke-linecap="round" fill="none"/>
<path d="M 8.00,4.86 L 8.54,4.86 L 9.08,4.86 L 9.62,4.86 L 10.16,4.86 L 10.69,4.86 L 11.23,4.86 L 11.77,4.86 L 12.31,4.86 L 12.85,4.86 L 13.39,4.86 L 13.93,4.86 L 14.47,4.86 L 15.01,4.86 L 15.54,4.86 L 16.08,4.86 L 16.62,4.86 L 17.16,4.86 L 17.70,4.86 L 18.24,4.86 L 18.78,4.86 L 19.32,4.86 L 19.86,4.86 L 20.40,4.86 L 20.93,4.86 L 21.47,4.86 L 22.01,4.86 L 22.55,4.86 L 23.09,4.86 L 23.63,4.86 L 24.17,4.86 L 24.71,4.86 L 25.25,4.86 L 25.78,4.86 L 26.32,4.86 L 26.86,4.86 L 27.40,4.86 L 27.94,4.86 L 28.48,4.86 L 29.02,4.86 L 29.56,4.86 L 30.10,4.86 L 30.63,4.86 L 31.17,4.86 L 31.71,4.86 L 32.25,4.86 L 32.79,4.86 L 33.33,4.86 L 33.87,4.86 L 34.41,4.86 L 34.95,4.86 L 35.49,4.86 L 36.02,4.86 L 36.56,4.86 L 37.10,4.86 L 37.64,4.86 L 38.18,4.86 L 38.72,4.86 L 39.26,4.86 L 39.80,4.86 L 40.34,4.86 L 40.87,4.86 L 41.41,4.86 L 41.95,4.86 L 42.49,4.86 L 43.03,4.86 L 43.57,4.86 L 44.11,4.86 L 44.65,4.86 L 45.19,4.86 L 45.72,4.86 L 46.26,4.86 L 46.80,4.86 L 47.34,4.86 L 47.88,4.86 L 48.42,4.86 L 48.96,4.86 L 49.50,4.86 L 50.04,4.86 L 50.57,4.86 L 51.11,4.86 L 51.65,4.86 L 52.19,4.86 L 52.73,4.86 L 53.27,4.86 L 53.81,4.86 L 54.35,4.86 L 54.89,4.86 L 55.43,4.86 L 55.96,4.86 L 56.50,4.86 L 57.04,4.86 L 57.58,4.86 L 58.12,4.86 L 58.66,4.86 L 59.20,4.85 L 59.74,4.85 L 60.28,4.84 L 60.81,4.83 L 61.35,4.80 L 61.89,4.77 L 62.43,4.74 L 62.97,4.70 L 63.51,4.64 L 64.05,4.57 L 64.59,4.50 L 65.13,4.43 L 65.66,4.39 L 66.20,4.34 L 66.74,4.29 L 67.28,4.25 L 67.82,4.29 L 68.36,4.33 L 68.90,4.36 L 69.44,4.40 L 69.98,4.47 L 70.51,4.54 L 71.05,4.61 L 71.59,4.68 L 72.13,4.72 L 72.67,4.75 L 73.21,4.79 L 73.75,4.82 L 74.29,4.83 L 74.83,4.84 L 75.37,4.85 L 75.90,4.85 L 76.44,4.85 L 76.98,4.84 L 77.52,4.84 L 78.06,4.83 L 78.60,4.82 L 79.14,4.80 L 79.68,4.78 L 80.22,4.77 L 80.75,4.74 L 81.29,4.72 L 81.83,4.69 L 82.37,4.67 L 82.91,4.64 L 83.45,4.61 L 83.99,4.58 L 84.53,4.55 L 85.07,4.53 L 85.60,4.52 L 86.14,4.51 L 86.68,4.50 L 87.22,4.51 L 87.76,4.54 L 88.30,4.57 L 88.84,4.60 L 89.38,4.63 L 89.92,4.67 L 90.46,4.70 L 90.99,4.74 L 91.53,4.77 L 92.07,4.78 L 92.61,4.80 L 93.15,4.81 L 93.69,4.82 L 94.23,4.82 L 94.77,4.82 L 95.31,4.82 L 95.84,4.82 L 96.38,4.82 L 96.92,4.83 L 97.46,4.83 L 98.00,4.83" stroke-width="1.5" stroke-linejoin="round" stroke-linecap="round" fill="none"/>
<path d="M 8.00,5.64 L 8.54,5.64 L 9.08,5.64 L 9.62,5.64 L 10.16,5.64 L 10.69,5.64 L 11.23,5.64 L 11.77,5.64 L 12.31,5.64 L 12.85,5.64 L 13.39,5.64 L 13.93,5.64 L 14.47,5.64 L 15.01,5.64 L 15.54,5.64 L 16.08,5.64 L 16.62,5.64 L 17.16,5.64 L 17.70,5.64 L 18.24,5.64 L 18.78,5.64 L 19.32,5.64 L 19.86,5.64 L 20.40,5.64 L 20.93,5.64 L 21.47,5.64 L 22.01,5.64 L 22.55,5.64 L 23.09,5.64 L 23.63,5.64 L 24.17,5.64 L 24.71,5.64 L 25.25,5.64 L 25.78,5.64 L 26.32,5.64 L 26.86,5.64 L 27.40,5.64 L 27.94,5.64 L 28.48,5.64 L 29.02,5.64 L 29.56,5.64 L 30.10,5.64 L 30.63,5.64 L 31.17,5.64 L 31.71,5.64 L 32.25,5.64 L 32.79,5.64 L 33.33,5.64 L 33.87,5.64 L 34.41,5.64 L 34.95,5.64 L 35.49,5.64 L 36.02,5.64 L 36.56,5.64 L 37.10,5.64 L 37.64,5.64 L 38.18,5.64 L 38.72,5.64 L 39.26,5.64 L 39.80,5.64 L 40.34,5.64 L 40.87,5.64 L 41.41,5.64 L 41.95,5.64 L 42.49,5.64 L 43.03,5.64 L 43.57,5.64 L 44.11,5.64 L 44.65,5.64 L 45.19,5.64 L 45.72,5.64 L 46.26,5.64 L 46.80,5.64 L 47.34,5.64 L 47.88,5.64 L 48.42,5.64 L 48.96,5.64 L 49.50,5.64 L 50.04,5.64 L 50.57,5.64 L 51.11,5.64 L 51.65,5.64 L 52.19,5.64 L 52.73,5.64 L 53.27,5.64 L 53.81,5.63 L 54.35,5.63 L 54.89,5.63 L 55.43,5.62 L 55.96,5.62 L 56.50,5.61 L 57.04,5.58 L 57.58,5.56 L 58.12,5.53 L 58.66,5.50 L 59.20,5.44 L 59.74,5.38 L 60.28,5.32 L 60.81,5.26 L 61.35,5.20 L 61.89,5.14 L 62.43,5.09 L 62.97,5.04 L 63.51,5.03 L 64.05,5.03 L 64.59,5.02 L 65.13,5.02 L 65.66,5.05 L 66.20,5.07 L 66.74,5.10 L 67.28,5.13 L 67.82,5.17 L 68.36,5.20 L 68.90,5.24 L 69.44,5.27 L 69.98,5.32 L 70.51,5.36 L 71.05,5.40 L 71.59,5.44 L 72.13,5.47 L 72.67,5.50 L 73.21,5.53 L 73.75,5.56 L 74.29,5.57 L 74.83,5.59 L 75.37,5.60 L 75.90,5.62 L 76.44,5.62 L 76.98,5.63 L 77.52,5.63 L 78.06,5.63 L 78.60,5.63 L 79.14,5.63 L 79.68,5.64 L 80.22,5.64 L 80.75,5.64 L 81.29,5.64 L 81.83,5.64 L 82.37,5.64 L 82.91,5.64 L 83.45,5.63 L 83.99,5.63 L 84.53,5.63 L 85.07,5.63 L 85.60,5.63 L 86.14,5.62 L 86.68,5.62 L 87.22,5.61 L 87.76,5.60 L 88.30,5.59 L 88.84,5.57 L 89.38,5.56 L 89.92,5.55 L 90.46,5.54 L 90.99,5.53 L 91.53,5.53 L 92.07,5.53 L 92.61,5.53 L 93.15,5.54 L 93.69,5.54 L 94.23,5.55 L 94.77,5.56 L 95.31,5.58 L 95.84,5.59 L 96.38,5.59 L 96.92,5.60 L 97.46,5.61 L 98.00,5.62" stroke-width="1.5" stroke-linejoin="round" stroke-linecap="round" fill="none"/>
<path d="M 8.00,6.41 L 8.54,6.41 L 9.08,6.41 L 9.62,6.41 L 10.16,6.41 L 10.69,6.41 L 11.23,6.41 L 11.77,6.41 L 12.31,6.41 L 12.85,6.41 L 13.39,6.41 L 13.93,6.41 L 14.47,6.41 L 15.01,6.41 L 15.54,6.41 L 16.08,6.41 L 16.62,6.41 L 17.16,6.41 L 17.70,6.41 L 18.24,6.41 L 18.78,6.41 L 19.32,6.41 L 19.86,6.41 L 20.40,6.41 L 20.93,6.41 L 21.47,6.41 L 22.01,6.41 L 22.55,6.41 L 23.09,6.41 L 23.63,6.41 L 24.17,6.41 L 24.71,6.41 L 25.25,6.41 L 25.78,6.41 L 26.32,6.41 L 26.86,6.41 L 27.40,6.41 L 27.94,6.41 L 28.48,6.41 L 29.02,6.41 L 29.56,6.41 L 30.10,6.41 L 30.63,6.41 L 31.17,6.41 L 31.71,6.41 L 32.25,6.41 L 32.79,6.41 L 33.33,6.41 L 33.87,6.41 L 34.41,6.41 L 34.95,6.41 L 35.49,6.41 L 36.02,6.41 L 36.56,6.41 L 37.10,6.41 L 37.64,6.41 L 38.18,6.41 L 38.72,6.41 L 39.26,6.41 L 39.80,6.41 L 40.34,6.41 L 40.87,6.41 L 41.41,6.41 L 41.95,6.41 L 42.49,6.41 L 43.03,6.41 L 43.57,6.41 L 44.11,6.41 L 44.65,6.41 L 45.19,6.41 L 45.72,6.41 L 46.26,6.41 L 46.80,6.41 L 47.34,6.41 L 47.88,6.41 L 48.42,6.41 L 48.96,6.41 L 49.50,6.41 L 50.04,6.41 L 50.57,6.41 L 51.11,6.41 L 51.65,6.41 L 52.19,6.41 L 52.73,6.41 L 53.27,6.41 L 53.81,6.41 L 54.35,6.41 L 54.89,6.41 L 55.43,6.41 L 55.96,6.41 L 56.50,6.41 L 57.04,6.41 L 57.58,6.41 L 58.12,6.41 L 58.66,6.41 L 59.20,6.41 L 59.74,6.41 L 60.28,6.41 L 60.81,6.41 L 61.35,6.41 L 61.89,6.41 L 62.43,6.41 L 62.97,6.41 L 63.51,6.41 L 64.05,6.41 L 64.59,6.41 L 65.13,6.41 L 65.66,6.41 L 66.20,6.41 L 66.74,6.41 L 67.28,6.41 L 67.82,6.41 L 68.36,6.41 L 68.90,6.41 L 69.44,6.41 L 69.98,6.41 L 70.51,6.41 L 71.05,6.41 L 71.59,6.41 L 72.13,6.41 L 72.67,6.41 L 73.21,6.41 L 73.75,6.41 L 74.29,6.41 L 74.83,6.41 L 75.37,6.41 L 75.90,6.41 L 76.44,6.41 L 76.98,6.41 L 77.52,6.41 L 78.06,6.41 L 78.60,6.40 L 79.14,6.40 L 79.68,6.40 L 80.22,6.39 L 80.75,6.38 L 81.29,6.35 L 81.83,6.33 L 82.37,6.31 L 82.91,6.27 L 83.45,6.21 L 83.99,6.15 L 84.53,6.09 L 85.07,6.03 L 85.60,5.96 L 86.14,5.90 L 86.68,5.83 L 87.22,5.79 L 87.76,5.80 L 88.30,5.80 L 88.84,5.81 L 89.38,5.83 L 89.92,5.89 L 90.46,5.96 L 90.99,6.02 L 91.53,6.09 L 92.07,6.14 L 92.61,6.19 L 93.15,6.25 L 93.69,6.30 L 94.23,6.31 L 94.77,6.33 L 95.31,6.35 L 95.84,6.37 L 96.38,6.37 L 96.92,6.38 L 97.46,6.38 L 98.00,6.39" stroke-width="1.5" stroke-linejoin="round" stroke-linecap="round" fill="none"/>
<path d="M 8.00,7.18 L 8.54,7.18 L 9.08,7.18 L 9.62,7.18 L 10.16,7.18 L 10.69,7.18 L 11.23,7.18 L 11.77,7.18 L 12.31,7.18 L 12.85,7.18 L 13.39,7.18 L 13.93,7.18 L 14.47,7.18 L 15.01,7.18 L 15.54,7.18 L 16.08,7.18 L 16.62,7.18 L 17.16,7.18 L 17.70,7.18 L 18.24,7.18 L 18.78,7.18 L 19.32,7.18 L 19.86,7.18 L 20.40,7.18 L 20.93,7.18 L 21.47,7.18 L 22.01,7.18 L 22.55,7.18 L 23.09,7.18 L 23.63,7.18 L 24.17,7.18 L 24.71,7.18 L 25.25,7.18 L 25.78,7.18 L 26.32,7.18 L 26.86,7.18 L 27.40,7.18 L 27.94,7.18 L 28.48,7.18 L 29.02,7.18 L 29.56,7.18 L 30.10,7.18 L 30.63,7.18 L 31.17,7.18 L 31.71,7.18 L 32.25,7.18 L 32.79,7.18 L 33.33,7.18 L 33.87,7.18 L 34.41,7.18 L 34.95,7.18 L 35.49,7.18 L 36.02,7.18 L 36.56,7.18 L 37.10,7.18 L 37.64,7.18 L 38.18,7.18 L 38.72,7.18 L 39.26,7.18 L 39.80,7.18 L 40.34,7.18 L 40.87,7.18 L 41.41,7.18 L 41.95,7.18 L 42.49,7.18 L 43.03,7.18 L 43.57,7.18 L 44.11,7.18 L 44.65,7.18 L 45.19,7.18 L 45.72,7.18 L 46.26,7.18 L 46.80,7.18 L 47.34,7.18 L 47.88,7.18 L 48.42,7.18 L 48.96,7.18 L 49.50,7.18 L 50.04,7.18 L 50.57,7.18 L 51.11,7.18 L 51.65,7.18 L 52.19,7.18 L 52.73,7.18 L 53.27,7.18 L 53.81,7.18 L 54.35,7.18 L 54.89,7.18 L 55.43,7.18 L 55.96,7.18 L 56.50,7.18 L 57.04,7.18 L 57.58,7.18 L 58.12,7.18 L 58.66,7.18 L 59.20,7.18 L 59.74,7.18 L 60.28,7.18 L 60.81,7.18 L 61.35,7.17 L 61.89,7.17 L 62.43,7.16 L 62.97,7.15 L 63.51,7.12 L 64.05,7.09 L 64.59,7.06 L 65.13,7.02 L 65.66,6.95 L 66.20,6.88 L 66.74,6.81 L 67.28,6.74 L 67.82,6.70 L 68.36,6.65 L 68.90,6.61 L 69.44,6.57 L 69.98,6.61 L 70.51,6.65 L 71.05,6.70 L 71.59,6.74 L 72.13,6.81 L 72.67,6.88 L 73.21,6.94 L 73.75,7.01 L 74.29,7.05 L 74.83,7.08 L 75.37,7.12 L 75.90,7.15 L 76.44,7.16 L 76.98,7.17 L 77.52,7.17 L 78.06,7.18 L 78.60,7.18 L 79.14,7.18 L 79.68,7.18 L 80.22,7.18 L 80.75,7.18 L 81.29,7.18 L 81.83,7.18 L 82.37,7.18 L 82.91,7.18 L 83.45,7.18 L 83.99,7.18 L 84.53,7.18 L 85.07,7.18 L 85.60,7.18 L 86.14,7.18 L 86.68,7.18 L 87.22,7.18 L 87.76,7.18 L 88.30,7.18 L 88.84,7.18 L 89.38,7.18 L 89.92,7.17 L 90.46,7.17 L 90.99,7.16 L 91.53,7.16 L 92.07,7.15 L 92.61,7.14 L 93.15,7.13 L 93.69,7.12 L 94.23,7.11 L 94.77,7.11 L 95.31,7.10 L 95.84,7.09 L 96.38,7.10 L 96.92,7.11 L 97.46,7.11 L 98.00,7.12" stroke-width="1.5" stroke-linejoin="round" stroke-linecap="round" fill="none"/>
<path d="M 8.00,7.95 L 8.54,7.95 L 9.08,7.95 L 9.62,7.95 L 10.16,7.95 L 10.69,7.95 L 11.23,7.95 L 11.77,7.95 L 12.31,7.95 L 12.85,7.95 L 13.39,7.95 L 13.93,7.95 L 14.47,7.95 L 15.01,7.95 L 15.54,7.95 L 16.08,7.95 L 16.62,7.95 L 17.16,7.95 L 17.70,7.95 L 18.24,7.95 L 18.78,7.95 L 19.32,7.95 L 19.86,7.95 L 20.40,7.95 L 20.93,7.95 L 21.47,7.95 L 22.01,7.95 L 22.55,7.95 L 23.09,7.95 L 23.63,7.95 L 24.17,7.95 L 24.71,7.95 L 25.25,7.95 L 25.78,7.95 L 26.32,7.95 L 26.86,7.95 L 27.40,7.95 L 27.94,7.95 L 28.48,7.95 L 29.02,7.95 L 29.56,7.95 L 30.10,7.95 L 30.63,7.95 L 31.17,7.95 L 31.71,7.95 L 32.25,7.95 L 32.79,7.95 L 33.33,7.95 L 33.87,7.95 L 34.41,7.95 L 34.95,7.95 L 35.49,7.95 L 36.02,7.95 L 36.56,7.95 L 37.10,7.95 L 37.64,7.95 L 38.18,7.95 L 38.72,7.95 L 39.26,7.95 L 39.80,7.95 L 40.34,7.95 L 40.87,7.95 L 41.41,7.95 L 41.95,7.95 L 42.49,7.95 L 43.03,7.95 L 43.57,7.95 L 44.11,7.95 L 44.65,7.95 L 45.19,7.95 L 45.72,7.95 L 46.26,7.95 L 46.80,7.95 L 47.34,7.95 L 47.88,7.95 L 48.42,7.95 L 48.96,7.95 L 49.50,7.95 L 50.04,7.95 L 50.57,7.95 L 51.11,7.95 L 51.65,7.95 L 52.19,7.95 L 52.73,7.95 L 53.27,7.95 L 53.81,7.95 L 54.35,7.95 L 54.89,7.95 L 55.43,7.95 L 55.96,7.95 L 56.50,7.95 L 57.04,7.95 L 57.58,7.95 L 58.12,7.95 L 58.66,7.95 L 59.20,7.95 L 59.74,7.95 L 60.28,7.95 L 60.81,7.95 L 61.35,7.95 L 61.89,7.95 L 62.43,7.95 L 62.97,7.95 L 63.51,7.95 L 64.05,7.95 L 64.59,7.95 L 65.13,7.95 L 65.66,7.95 L 66.20,7.95 L 66.74,7.95 L 67.28,7.95 L 67.82,7.95 L 68.36,7.95 L 68.90,7.95 L 69.44,7.95 L 69.98,7.95 L 70.51,7.94 L 71.05,7.94 L 71.59,7.93 L 72.13,7.90 L 72.67,7.87 L 73.21,7.84 L 73.75,7.81 L 74.29,7.75 L 74.83,7.68 L 75.37,7.62 L 75.90,7.55 L 76.44,7.49 L 76.98,7.45 L 77.52,7.40 L 78.06,7.35 L 78.60,7.36 L 79.14,7.40 L 79.68,7.44 L 80.22,7.48 L 80.75,7.54 L 81.29,7.60 L 81.83,7.67 L 82.37,7.74 L 82.91,7.79 L 83.45,7.83 L 83.99,7.86 L 84.53,7.90 L 85.07,7.92 L 85.60,7.93 L 86.14,7.94 L 86.68,7.95 L 87.22,7.95 L 87.76,7.95 L 88.30,7.95 L 88.84,7.95 L 89.38,7.95 L 89.92,7.95 L 90.46,7.95 L 90.99,7.95 L 91.53,7.94 L 92.07,7.94 L 92.61,7.93 L 93.15,7.93 L 93.69,7.92 L 94.23,7.92 L 94.77,7.92 L 95.31,7.91 L 95.84,7.91 L 96.38,7.91 L 96.92,7.92 L 97.46,7.92 L 98.00,7.92" stroke-width="1.5" stroke-linejoin="round" stroke-linecap="round" fill="none"/>
<path d="M 8.00,8.73 L 8.54,8.73 L 9.08,8.73 L 9.62,8.73 L 10.16,8.73 L 10.69,8.73 L 11.23,8.73 L 11.77,8.73 L 12.31,8.73 L 12.85,8.73 L 13.39,8.73 L 13.93,8.73 L 14.47,8.73 L 15.01,8.73 L 15.54,8.73 L 16.08,8.73 L 16.62,8.73 L 17.16,8.73 L 17.70,8.73 L 18.24,8.73 L 18.78,8.73 L 19.32,8.73 L 19.86,8.73 L 20.40,8.73 L 20.93,8.73 L 21.47,8.73 L 22.01,8.73 L 22.55,8.73 L 23.09,8.73 L 23.63,8.73 L 24.17,8.73 L 24.71,8.73 L 25.25,8.73 L 25.78,8.73 L 26.32,8.73 L 26.86,8.73 L 27.40,8.73 L 27.94,8.73 L 28.48,8.73 L 29.02,8.73 L 29.56,8.73 L 30.10,8.73 L 30.63,8.73 L 31.17,8.73 L 31.71,8.73 L 32.25,8.73 L 32.79,8.73 L 33.33,8.73 L 33.87,8.73 L 34.41,8.73 L 34.95,8.73 L 35.49,8.73 L 36.02,8.73 L 36.56,8.73 L 37.10,8.73 L 37.64,8.73 L 38.18,8.73 L 38.72,8.73 L 39.26,8.73 L 39.80,8.73 L 40.34,8.73 L 40.87,8.73 L 41.41,8.73 L 41.95,8.73 L 42.49,8.73 L 43.03,8.73 L 43.57,8.73 L 44.11,8.73 L 44.65,8.73 L 45.19,8.73 L 45.72,8.73 L 46.26,8.73 L 46.80,8.73 L 47.34,8.73 L 47.88,8.73 L 48.42,8.73 L 48.96,8.73 L 49.50,8.73 L 50.04,8.73 L 50.57,8.73 L 51.11,8.73 L 51.65,8.73 L 52.19,8.73 L 52.73,8.73 L 53.27,8.73 L 53.81,8.73 L 54.35,8.73 L 54.89,8.73 L 55.43,8.73 L 55.96,8.73 L 56.50,8.73 L 57.04,8.73 L 57.58,8.73 L 58.12,8.73 L 58.66,8.73 L 59.20,8.73 L 59.74,8.73 L 60.28,8.73 L 60.81,8.73 L 61.35,8.73 L 61.89,8.73 L 62.43,8.73 L 62.97,8.73 L 63.51,8.73 L 64.05,8.73 L 64.59,8.73 L 65.13,8.73 L 65.66,8.73 L 66.20,8.73 L 66.74,8.73 L 67.28,8.73 L 67.82,8.73 L 68.36,8.73 L 68.90,8.73 L 69.44,8.73 L 69.98,8.73 L 70.51,8.73 L 71.05,8.73 L 71.59,8.73 L 72.13,8.73 L 72.67,8.73 L 73.21,8.73 L 73.75,8.73 L 74.29,8.73 L 74.83,8.73 L 75.37,8.73 L 75.90,8.73 L 76.44,8.73 L 76.98,8.73 L 77.52,8.73 L 78.06,8.73 L 78.60,8.73 L 79.14,8.73 L 79.68,8.73 L 80.22,8.73 L 80.75,8.73 L 81.29,8.73 L 81.83,8.73 L 82.37,8.73 L 82.91,8.73 L 83.45,8.73 L 83.99,8.73 L 84.53,8.73 L 85.07,8.73 L 85.60,8.73 L 86.14,8.73 L 86.68,8.73 L 87.22,8.73 L 87.76,8.73 L 88.30,8.73 L 88.84,8.73 L 89.38,8.73 L 89.92,8.73 L 90.46,8.73 L 90.99,8.73 L 91.53,8.73 L 92.07,8.73 L 92.61,8.73 L 93.15,8.73 L 93.69,8.73 L 94.23,8.73 L 94.77,8.73 L 95.31,8.73 L 95.84,8.73 L 96.38,8.73 L 96.92,8.73 L 97.46,8.73 L 98.00,8.73" stroke-width="1.5" stroke-linejoin="round" stroke-linecap="round" fill="none"/>
<text x="2.0" y="5.8" font-family="sans-serif" font-size="12" text-anchor="start">chasenunez</text>
<text x="2.0" y="6.5" font-family="sans-serif" font-size="12" text-anchor="start">voronoi</text>
<text x="2.0" y="7.3" font-family="sans-serif" font-size="12" text-anchor="start">trmnlp</text>
<text x="2.0" y="8.1" font-family="sans-serif" font-size="12" text-anchor="start">tui_log</text>
<text x="2.0" y="8.9" font-family="sans-serif" font-size="12" text-anchor="start">sunburst_nav</text>
<text x="2.0" y="9.6" font-family="sans-serif" font-size="12" text-anchor="start">DEVO_validator</text>
<text x="2.0" y="10.4" font-family="sans-serif" font-size="12" text-anchor="start">data_HUD</text>
<text x="2.0" y="11.2" font-family="sans-serif" font-size="12" text-anchor="start">recursive_shrink</text>
<text x="2.0" y="12.0" font-family="sans-serif" font-size="12" text-anchor="start">etani_shordul</text>
<text x="2.0" y="12.7" font-family="sans-serif" font-size="12" text-anchor="start">envidat_entrails</text>
<text x="8.0" y="9.8" font-family="sans-serif" font-size="10" text-anchor="middle">F</text>
<text x="10.2" y="9.8" font-family="sans-serif" font-size="10" text-anchor="middle">M</text>
<text x="12.4" y="9.8" font-family="sans-serif" font-size="10" text-anchor="middle">&nbsp;</text>
<text x="14.6" y="9.8" font-family="sans-serif" font-size="10" text-anchor="middle">&nbsp;</text>
<text x="16.8" y="9.8" font-family="sans-serif" font-size="10" text-anchor="middle">&nbsp;</text>
<text x="19.0" y="9.8" font-family="sans-serif" font-size="10" text-anchor="middle">A</text>
<text x="21.2" y="9.8" font-family="sans-serif" font-size="10" text-anchor="middle">&nbsp;</text>
<text x="23.4" y="9.8" font-family="sans-serif" font-size="10" text-anchor="middle">&nbsp;</text>
<text x="25.6" y="9.8" font-family="sans-serif" font-size="10" text-anchor="middle">&nbsp;</text>
<text x="27.8" y="9.8" font-family="sans-serif" font-size="10" text-anchor="middle">&nbsp;</text>
<text x="30.0" y="9.8" font-family="sans-serif" font-size="10" text-anchor="middle">M</text>
<text x="32.1" y="9.8" font-family="sans-serif" font-size="10" text-anchor="middle">&nbsp;</text>
<text x="34.3" y="9.8" font-family="sans-serif" font-size="10" text-anchor="middle">&nbsp;</text>
<text x="36.5" y="9.8" font-family="sans-serif" font-size="10" text-anchor="middle">&nbsp;</text>
<text x="38.7" y="9.8" font-family="sans-serif" font-size="10" text-anchor="middle">J</text>
<text x="40.9" y="9.8" font-family="sans-serif" font-size="10" text-anchor="middle">&nbsp;</text>
<text x="43.1" y="9.8" font-family="sans-serif" font-size="10" text-anchor="middle">&nbsp;</text>
<text x="45.3" y="9.8" font-family="sans-serif" font-size="10" text-anchor="middle">&nbsp;</text>
<text x="47.5" y="9.8" font-family="sans-serif" font-size="10" text-anchor="middle">u</text>
<text x="49.7" y="9.8" font-family="sans-serif" font-size="10" text-anchor="middle">&nbsp;</text>
<text x="51.9" y="9.8" font-family="sans-serif" font-size="10" text-anchor="middle">&nbsp;</text>
<text x="54.1" y="9.8" font-family="sans-serif" font-size="10" text-anchor="middle">&nbsp;</text>
<text x="56.3" y="9.8" font-family="sans-serif" font-size="10" text-anchor="middle">&nbsp;</text>
<text x="58.5" y="9.8" font-family="sans-serif" font-size="10" text-anchor="middle">A</text>
<text x="60.7" y="9.8" font-family="sans-serif" font-size="10" text-anchor="middle">&nbsp;</text>
<text x="62.9" y="9.8" font-family="sans-serif" font-size="10" text-anchor="middle">&nbsp;</text>
<text x="65.1" y="9.8" font-family="sans-serif" font-size="10" text-anchor="middle">&nbsp;</text>
<text x="67.3" y="9.8" font-family="sans-serif" font-size="10" text-anchor="middle">S</text>
<text x="69.5" y="9.8" font-family="sans-serif" font-size="10" text-anchor="middle">&nbsp;</text>
<text x="71.7" y="9.8" font-family="sans-serif" font-size="10" text-anchor="middle">&nbsp;</text>
<text x="73.9" y="9.8" font-family="sans-serif" font-size="10" text-anchor="middle">&nbsp;</text>
<text x="76.0" y="9.8" font-family="sans-serif" font-size="10" text-anchor="middle">&nbsp;</text>
<text x="78.2" y="9.8" font-family="sans-serif" font-size="10" text-anchor="middle">O</text>
<text x="80.4" y="9.8" font-family="sans-serif" font-size="10" text-anchor="middle">&nbsp;</text>
<text x="82.6" y="9.8" font-family="sans-serif" font-size="10" text-anchor="middle">&nbsp;</text>
<text x="84.8" y="9.8" font-family="sans-serif" font-size="10" text-anchor="middle">&nbsp;</text>
<text x="87.0" y="9.8" font-family="sans-serif" font-size="10" text-anchor="middle">N</text>
<text x="89.2" y="9.8" font-family="sans-serif" font-size="10" text-anchor="middle">&nbsp;</text>
<text x="91.4" y="9.8" font-family="sans-serif" font-size="10" text-anchor="middle">&nbsp;</text>
<text x="93.6" y="9.8" font-family="sans-serif" font-size="10" text-anchor="middle">&nbsp;</text>
<text x="95.8" y="9.8" font-family="sans-serif" font-size="10" text-anchor="middle">D</text>
<text x="98.0" y="9.8" font-family="sans-serif" font-size="10" text-anchor="middle">&nbsp;</text>
</g>
</svg>
