<?xml version="1.0" encoding="UTF-8"?>
<svg xmlns="http://www.w3.org/2000/svg" width="1200" height="500" viewBox="0 0 1200 500" preserveAspectRatio="xMidYMid meet">
<defs>
<style type="text/css"><![CDATA[
:root { --line: #000000; }
@media (prefers-color-scheme: dark) { :root { --line: #ffffff; } }
path { stroke: var(--line); }
text { fill: var(--line); }
svg { background: transparent; }
]]></style>
</defs>
<g>
<path d="M 96.00,88.64 L 102.47,88.64 L 108.93,88.64 L 115.40,88.64 L 121.87,88.64 L 128.34,88.64 L 134.80,88.64 L 141.27,88.64 L 147.74,88.64 L 154.20,88.64 L 160.67,88.64 L 167.14,88.64 L 173.60,88.64 L 180.07,88.64 L 186.54,88.64 L 193.01,88.64 L 199.47,88.64 L 205.94,88.64 L 212.41,88.64 L 218.87,88.64 L 225.34,88.64 L 231.81,88.64 L 238.28,88.64 L 244.74,88.64 L 251.21,88.64 L 257.68,88.64 L 264.14,88.64 L 270.61,88.64 L 277.08,88.64 L 283.54,88.64 L 290.01,88.64 L 296.48,88.64 L 302.95,88.64 L 309.41,88.64 L 315.88,88.64 L 322.35,88.64 L 328.81,88.64 L 335.28,88.64 L 341.75,88.64 L 348.22,88.64 L 354.68,88.64 L 361.15,88.64 L 367.62,88.64 L 374.08,88.64 L 380.55,88.64 L 387.02,88.64 L 393.49,88.64 L 399.95,88.64 L 406.42,88.64 L 412.89,88.64 L 419.35,88.64 L 425.82,88.64 L 432.29,88.64 L 438.75,88.64 L 445.22,88.64 L 451.69,88.64 L 458.16,88.64 L 464.62,88.64 L 471.09,88.64 L 477.56,88.64 L 484.02,88.64 L 490.49,88.64 L 496.96,88.64 L 503.43,88.64 L 509.89,88.64 L 516.36,88.64 L 522.83,88.64 L 529.29,88.64 L 535.76,88.64 L 542.23,88.64 L 548.69,88.64 L 555.16,88.64 L 561.63,88.64 L 568.10,88.64 L 574.56,88.64 L 581.03,88.64 L 587.50,88.64 L 593.96,88.64 L 600.43,88.64 L 606.90,88.64 L 613.37,88.64 L 619.83,88.64 L 626.30,88.64 L 632.77,88.64 L 639.23,88.64 L 645.70,88.64 L 652.17,88.64 L 658.63,88.64 L 665.10,88.64 L 671.57,88.64 L 678.04,88.64 L 684.50,88.64 L 690.97,88.64 L 697.44,88.64 L 703.90,88.64 L 710.37,88.64 L 716.84,88.64 L 723.31,88.64 L 729.77,88.64 L 736.24,88.64 L 742.71,88.64 L 749.17,88.64 L 755.64,88.64 L 762.11,88.64 L 768.57,88.64 L 775.04,88.64 L 781.51,88.64 L 787.98,88.64 L 794.44,88.64 L 800.91,88.64 L 807.38,88.64 L 813.84,88.64 L 820.31,88.64 L 826.78,88.64 L 833.25,88.64 L 839.71,88.64 L 846.18,88.64 L 852.65,88.64 L 859.11,88.64 L 865.58,88.64 L 872.05,88.64 L 878.51,88.64 L 884.98,88.64 L 891.45,88.64 L 897.92,88.64 L 904.38,88.64 L 910.85,88.64 L 917.32,88.64 L 923.78,88.64 L 930.25,88.64 L 936.72,88.64 L 943.19,88.64 L 949.65,88.64 L 956.12,88.64 L 962.59,88.64 L 969.05,88.64 L 975.52,88.64 L 981.99,88.64 L 988.46,88.64 L 994.92,88.64 L 1001.39,88.64 L 1007.86,88.64 L 1014.32,88.64 L 1020.79,88.64 L 1027.26,88.64 L 1033.72,88.64 L 1040.19,88.64 L 1046.66,88.64 L 1053.13,88.64 L 1059.59,88.64 L 1066.06,88.64 L 1072.53,88.64 L 1078.99,88.64 L 1085.46,88.64 L 1091.93,88.64 L 1098.40,88.64 L 1104.86,88.64 L 1111.33,88.64 L 1117.80,88.64 L 1124.26,88.64 L 1130.73,88.64 L 1137.20,88.64 L 1143.66,88.64 L 1150.13,88.64 L 1156.60,88.64 L 1163.07,88.64 L 1169.53,88.64 L 1176.00,88.64" stroke-width="1.2" stroke-linejoin="round" stroke-linecap="round" fill="none"/>
<path d="M 96.00,127.27 L 102.47,127.27 L 108.93,127.27 L 115.40,127.27 L 121.87,127.27 L 128.34,127.27 L 134.80,127.27 L 141.27,127.27 L 147.74,127.27 L 154.20,127.27 L 160.67,127.27 L 167.14,127.27 L 173.60,127.27 L 180.07,127.27 L 186.54,127.27 L 193.01,127.27 L 199.47,127.27 L 205.94,127.27 L 212.41,127.27 L 218.87,127.27 L 225.34,127.27 L 231.81,127.27 L 238.28,127.27 L 244.74,127.27 L 251.21,127.27 L 257.68,127.27 L 264.14,127.27 L 270.61,127.27 L 277.08,127.27 L 283.54,127.27 L 290.01,127.27 L 296.48,127.27 L 302.95,127.27 L 309.41,127.27 L 315.88,127.27 L 322.35,127.27 L 328.81,127.27 L 335.28,127.27 L 341.75,127.27 L 348.22,127.27 L 354.68,127.27 L 361.15,127.27 L 367.62,127.27 L 374.08,127.27 L 380.55,127.27 L 387.02,127.27 L 393.49,127.27 L 399.95,127.27 L 406.42,127.27 L 412.89,127.27 L 419.35,127.27 L 425.82,127.27 L 432.29,127.27 L 438.75,127.27 L 445.22,127.27 L 451.69,127.27 L 458.16,127.27 L 464.62,127.27 L 471.09,127.27 L 477.56,127.27 L 484.02,127.27 L 490.49,127.27 L 496.96,127.27 L 503.43,127.27 L 509.89,127.27 L 516.36,127.27 L 522.83,127.27 L 529.29,127.27 L 535.76,127.27 L 542.23,127.27 L 548.69,127.27 L 555.16,127.27 L 561.63,127.27 L 568.10,127.27 L 574.56,127.27 L 581.03,127.27 L 587.50,127.27 L 593.96,127.27 L 600.43,127.27 L 606.90,127.27 L 613.37,127.27 L 619.83,127.27 L 626.30,127.27 L 632.77,127.27 L 639.23,127.27 L 645.70,127.27 L 652.17,127.27 L 658.63,127.27 L 665.10,127.27 L 671.57,127.27 L 678.04,127.27 L 684.50,127.27 L 690.97,127.27 L 697.44,127.27 L 703.90,127.27 L 710.37,127.27 L 716.84,127.27 L 723.31,127.27 L 729.77,127.27 L 736.24,127.27 L 742.71,127.27 L 749.17,127.27 L 755.64,127.27 L 762.11,127.27 L 768.57,127.27 L 775.04,127.27 L 781.51,127.27 L 787.98,127.27 L 794.44,127.27 L 800.91,127.27 L 807.38,127.27 L 813.84,127.27 L 820.31,127.27 L 826.78,127.27 L 833.25,127.27 L 839.71,127.27 L 846.18,127.27 L 852.65,127.27 L 859.11,127.27 L 865.58,127.27 L 872.05,127.27 L 878.51,127.27 L 884.98,127.27 L 891.45,127.27 L 897.92,127.27 L 904.38,127.27 L 910.85,127.27 L 917.32,127.27 L 923.78,127.27 L 930.25,127.27 L 936.72,127.27 L 943.19,127.27 L 949.65,127.27 L 956.12,127.27 L 962.59,127.27 L 969.05,127.27 L 975.52,127.27 L 981.99,127.27 L 988.46,127.27 L 994.92,127.27 L 1001.39,127.27 L 1007.86,127.27 L 1014.32,127.27 L 1020.79,127.27 L 1027.26,127.27 L 1033.72,127.27 L 1040.19,127.27 L 1046.66,127.27 L 1053.13,127.27 L 1059.59,127.27 L 1066.06,127.27 L 1072.53,127.27 L 1078.99,127.27 L 1085.46,127.27 L 1091.93,127.27 L 1098.40,127.27 L 1104.86,127.27 L 1111.33,127.27 L 1117.80,127.27 L 1124.26,127.27 L 1130.73,127.27 L 1137.20,127.27 L 1143.66,127.27 L 1150.13,127.27 L 1156.60,127.27 L 1163.07,127.27 L 1169.53,127.27 L 1176.00,127.27" stroke-width="1.2" stroke-linejoin="round" stroke-linecap="round" fill="none"/>
<path d="M 96.00,165.91 L 102.47,165.91 L 108.93,165.91 L 115.40,165.91 L 121.87,165.91 L 128.34,165.91 L 134.80,165.91 L 141.27,165.91 L 147.74,165.91 L 154.20,165.91 L 160.67,165.91 L 167.14,165.91 L 173.60,165.91 L 180.07,165.91 L 186.54,165.91 L 193.01,165.91 L 199.47,165.91 L 205.94,165.91 L 212.41,165.91 L 218.87,165.91 L 225.34,165.91 L 231.81,165.91 L 238.28,165.91 L 244.74,165.91 L 251.21,165.91 L 257.68,165.91 L 264.14,165.91 L 270.61,165.91 L 277.08,165.91 L 283.54,165.91 L 290.01,165.91 L 296.48,165.91 L 302.95,165.91 L 309.41,165.91 L 315.88,165.91 L 322.35,165.91 L 328.81,165.91 L 335.28,165.91 L 341.75,165.91 L 348.22,165.91 L 354.68,165.91 L 361.15,165.91 L 367.62,165.91 L 374.08,165.91 L 380.55,165.91 L 387.02,165.91 L 393.49,165.91 L 399.95,165.91 L 406.42,165.91 L 412.89,165.91 L 419.35,165.91 L 425.82,165.91 L 432.29,165.91 L 438.75,165.91 L 445.22,165.91 L 451.69,165.91 L 458.16,165.91 L 464.62,165.91 L 471.09,165.91 L 477.56,165.91 L 484.02,165.91 L 490.49,165.91 L 496.96,165.91 L 503.43,165.91 L 509.89,165.91 L 516.36,165.91 L 522.83,165.91 L 529.29,165.91 L 535.76,165.91 L 542.23,165.91 L 548.69,165.91 L 555.16,165.91 L 561.63,165.91 L 568.10,165.91 L 574.56,165.91 L 581.03,165.91 L 587.50,165.91 L 593.96,165.91 L 600.43,165.91 L 606.90,165.91 L 613.37,165.91 L 619.83,165.91 L 626.30,165.91 L 632.77,165.91 L 639.23,165.91 L 645.70,165.91 L 652.17,165.91 L 658.63,165.91 L 665.10,165.91 L 671.57,165.91 L 678.04,165.91 L 684.50,165.91 L 690.97,165.91 L 697.44,165.91 L 703.90,165.91 L 710.37,165.91 L 716.84,165.91 L 723.31,165.91 L 729.77,165.91 L 736.24,165.91 L 742.71,165.91 L 749.17,165.91 L 755.64,165.91 L 762.11,165.91 L 768.57,165.91 L 775.04,165.91 L 781.51,165.91 L 787.98,165.91 L 794.44,165.91 L 800.91,165.91 L 807.38,165.91 L 813.84,165.91 L 820.31,165.91 L 826.78,165.91 L 833.25,165.91 L 839.71,165.91 L 846.18,165.91 L 852.65,165.91 L 859.11,165.91 L 865.58,165.91 L 872.05,165.91 L 878.51,165.91 L 884.98,165.91 L 891.45,165.91 L 897.92,165.91 L 904.38,165.91 L 910.85,165.91 L 917.32,165.91 L 923.78,165.91 L 930.25,165.91 L 936.72,165.91 L 943.19,165.91 L 949.65,165.91 L 956.12,165.91 L 962.59,165.91 L 969.05,165.91 L 975.52,165.91 L 981.99,165.91 L 988.46,165.91 L 994.92,165.91 L 1001.39,165.91 L 1007.86,165.91 L 1014.32,165.91 L 1020.79,165.91 L 1027.26,165.91 L 1033.72,165.91 L 1040.19,165.91 L 1046.66,165.91 L 1053.13,165.91 L 1059.59,165.91 L 1066.06,165.91 L 1072.53,165.91 L 1078.99,165.91 L 1085.46,165.91 L 1091.93,165.91 L 1098.40,165.91 L 1104.86,165.91 L 1111.33,165.91 L 1117.80,165.91 L 1124.26,165.91 L 1130.73,165.91 L 1137.20,165.91 L 1143.66,165.91 L 1150.13,165.91 L 1156.60,165.91 L 1163.07,165.91 L 1169.53,165.91 L 1176.00,165.91" stroke-width="1.2" stroke-linejoin="round" stroke-linecap="round" fill="none"/>
<path d="M 96.00,204.55 L 102.47,204.55 L 108.93,204.55 L 115.40,204.55 L 121.87,204.55 L 128.34,204.55 L 134.80,204.55 L 141.27,204.55 L 147.74,204.55 L 154.20,204.55 L 160.67,204.55 L 167.14,204.55 L 173.60,204.55 L 180.07,204.55 L 186.54,204.55 L 193.01,204.55 L 199.47,204.55 L 205.94,204.55 L 212.41,204.55 L 218.87,204.55 L 225.34,204.55 L 231.81,204.55 L 238.28,204.55 L 244.74,204.55 L 251.21,204.55 L 257.68,204.55 L 264.14,204.55 L 270.61,204.55 L 277.08,204.55 L 283.54,204.55 L 290.01,204.55 L 296.48,204.55 L 302.95,204.55 L 309.41,204.55 L 315.88,204.55 L 322.35,204.55 L 328.81,204.55 L 335.28,204.55 L 341.75,204.55 L 348.22,204.55 L 354.68,204.55 L 361.15,204.55 L 367.62,204.55 L 374.08,204.55 L 380.55,204.55 L 387.02,204.55 L 393.49,204.55 L 399.95,204.55 L 406.42,204.55 L 412.89,204.55 L 419.35,204.55 L 425.82,204.55 L 432.29,204.55 L 438.75,204.55 L 445.22,204.55 L 451.69,204.55 L 458.16,204.55 L 464.62,204.55 L 471.09,204.55 L 477.56,204.55 L 484.02,204.55 L 490.49,204.55 L 496.96,204.55 L 503.43,204.55 L 509.89,204.55 L 516.36,204.55 L 522.83,204.55 L 529.29,204.55 L 535.76,204.55 L 542.23,204.55 L 548.69,204.55 L 555.16,204.55 L 561.63,204.55 L 568.10,204.55 L 574.56,204.55 L 581.03,204.55 L 587.50,204.55 L 593.96,204.55 L 600.43,204.55 L 606.90,204.55 L 613.37,204.55 L 619.83,204.55 L 626.30,204.55 L 632.77,204.55 L 639.23,204.55 L 645.70,204.55 L 652.17,204.55 L 658.63,204.55 L 665.10,204.55 L 671.57,204.55 L 678.04,204.55 L 684.50,204.55 L 690.97,204.55 L 697.44,204.55 L 703.90,204.55 L 710.37,204.55 L 716.84,204.55 L 723.31,204.55 L 729.77,204.55 L 736.24,204.55 L 742.71,204.55 L 749.17,204.55 L 755.64,204.55 L 762.11,204.55 L 768.57,204.55 L 775.04,204.55 L 781.51,204.55 L 787.98,204.55 L 794.44,204.55 L 800.91,204.55 L 807.38,204.55 L 813.84,204.55 L 820.31,204.55 L 826.78,204.55 L 833.25,204.55 L 839.71,204.55 L 846.18,204.55 L 852.65,204.55 L 859.11,204.55 L 865.58,204.55 L 872.05,204.55 L 878.51,204.55 L 884.98,204.55 L 891.45,204.55 L 897.92,204.55 L 904.38,204.55 L 910.85,204.55 L 917.32,204.55 L 923.78,204.55 L 930.25,204.55 L 936.72,204.55 L 943.19,204.55 L 949.65,204.55 L 956.12,204.55 L 962.59,204.55 L 969.05,204.55 L 975.52,204.55 L 981.99,204.55 L 988.46,204.55 L 994.92,204.55 L 1001.39,204.55 L 1007.86,204.55 L 1014.32,204.55 L 1020.79,204.55 L 1027.26,204.55 L 1033.72,204.55 L 1040.19,204.55 L 1046.66,204.55 L 1053.13,204.55 L 1059.59,204.55 L 1066.06,204.55 L 1072.53,204.55 L 1078.99,204.55 L 1085.46,204.55 L 1091.93,204.55 L 1098.40,204.55 L 1104.86,204.55 L 1111.33,204.55 L 1117.80,204.55 L 1124.26,204.55 L 1130.73,204.55 L 1137.20,204.55 L 1143.66,204.55 L 1150.13,204.55 L 1156.60,204.55 L 1163.07,204.55 L 1169.53,204.55 L 1176.00,204.55" stroke-width="1.2" stroke-linejoin="round" stroke-linecap="round" fill="none"/>
<path d="M 96.00,243.18 L 102.47,243.18 L 108.93,243.18 L 115.40,243.18 L 121.87,243.18 L 128.34,243.18 L 134.80,243.18 L 141.27,243.18 L 147.74,243.18 L 154.20,243.18 L 160.67,243.18 L 167.14,243.18 L 173.60,243.18 L 180.07,243.18 L 186.54,243.18 L 193.01,243.18 L 199.47,243.18 L 205.94,243.18 L 212.41,243.18 L 218.87,243.18 L 225.34,243.18 L 231.81,243.18 L 238.28,243.18 L 244.74,243.18 L 251.21,243.18 L 257.68,243.18 L 264.14,243.18 L 270.61,243.18 L 277.08,243.18 L 283.54,243.18 L 290.01,243.18 L 296.48,243.18 L 302.95,243.18 L 309.41,243.18 L 315.88,243.18 L 322.35,243.18 L 328.81,243.18 L 335.28,243.18 L 341.75,243.18 L 348.22,243.18 L 354.68,243.18 L 361.15,243.18 L 367.62,243.18 L 374.08,243.18 L 380.55,243.18 L 387.02,243.18 L 393.49,243.18 L 399.95,243.18 L 406.42,243.18 L 412.89,243.18 L 419.35,243.18 L 425.82,243.18 L 432.29,243.18 L 438.75,243.18 L 445.22,243.18 L 451.69,243.18 L 458.16,243.18 L 464.62,243.18 L 471.09,243.18 L 477.56,243.18 L 484.02,243.18 L 490.49,243.18 L 496.96,243.18 L 503.43,243.18 L 509.89,243.18 L 516.36,243.18 L 522.83,243.18 L 529.29,243.18 L 535.76,243.18 L 542.23,243.18 L 548.69,243.18 L 555.16,243.18 L 561.63,243.18 L 568.10,243.18 L 574.56,243.18 L 581.03,243.18 L 587.50,243.18 L 593.96,243.18 L 600.43,243.18 L 606.90,243.18 L 613.37,243.18 L 619.83,243.18 L 626.30,243.18 L 632.77,243.18 L 639.23,243.18 L 645.70,243.18 L 652.17,243.18 L 658.63,243.18 L 665.10,243.18 L 671.57,243.18 L 678.04,243.18 L 684.50,243.18 L 690.97,243.18 L 697.44,243.18 L 703.90,243.18 L 710.37,243.18 L 716.84,243.18 L 723.31,243.18 L 729.77,243.18 L 736.24,243.18 L 742.71,243.18 L 749.17,243.18 L 755.64,243.18 L 762.11,243.18 L 768.57,243.18 L 775.04,243.18 L 781.51,243.18 L 787.98,243.18 L 794.44,243.18 L 800.91,243.18 L 807.38,243.18 L 813.84,243.18 L 820.31,243.18 L 826.78,243.18 L 833.25,243.18 L 839.71,243.18 L 846.18,243.18 L 852.65,243.18 L 859.11,243.18 L 865.58,243.18 L 872.05,243.18 L 878.51,243.18 L 884.98,243.18 L 891.45,243.18 L 897.92,243.18 L 904.38,243.18 L 910.85,243.18 L 917.32,243.18 L 923.78,243.18 L 930.25,243.18 L 936.72,243.18 L 943.19,243.18 L 949.65,243.18 L 956.12,243.18 L 962.59,243.18 L 969.05,243.18 L 975.52,243.18 L 981.99,243.18 L 988.46,243.18 L 994.92,243.18 L 1001.39,243.18 L 1007.86,243.18 L 1014.32,243.18 L 1020.79,243.18 L 1027.26,243.18 L 1033.72,243.18 L 1040.19,243.18 L 1046.66,243.18 L 1053.13,243.18 L 1059.59,243.18 L 1066.06,243.18 L 1072.53,243.18 L 1078.99,243.18 L 1085.46,243.18 L 1091.93,243.18 L 1098.40,243.18 L 1104.86,243.18 L 1111.33,243.18 L 1117.80,243.18 L 1124.26,243.18 L 1130.73,243.18 L 1137.20,243.18 L 1143.66,243.18 L 1150.13,243.18 L 1156.60,243.18 L 1163.07,243.18 L 1169.53,243.18 L 1176.00,243.18" stroke-width="1.2" stroke-linejoin="round" stroke-linecap="round" fill="none"/>
<path d="M 96.00,281.82 L 102.47,281.82 L 108.93,281.82 L 115.40,281.82 L 121.87,281.82 L 128.34,281.82 L 134.80,281.82 L 141.27,281.82 L 147.74,281.82 L 154.20,281.82 L 160.67,281.82 L 167.14,281.82 L 173.60,281.82 L 180.07,281.82 L 186.54,281.82 L 193.01,281.82 L 199.47,281.82 L 205.94,281.82 L 212.41,281.82 L 218.87,281.82 L 225.34,281.82 L 231.81,281.82 L 238.28,281.82 L 244.74,281.82 L 251.21,281.82 L 257.68,281.82 L 264.14,281.82 L 270.61,281.82 L 277.08,281.82 L 283.54,281.82 L 290.01,281.82 L 296.48,281.82 L 302.95,281.82 L 309.41,281.82 L 315.88,281.82 L 322.35,281.82 L 328.81,281.82 L 335.28,281.82 L 341.75,281.82 L 348.22,281.82 L 354.68,281.82 L 361.15,281.82 L 367.62,281.82 L 374.08,281.82 L 380.55,281.82 L 387.02,281.82 L 393.49,281.82 L 399.95,281.82 L 406.42,281.82 L 412.89,281.82 L 419.35,281.82 L 425.82,281.82 L 432.29,281.82 L 438.75,281.82 L 445.22,281.82 L 451.69,281.82 L 458.16,281.82 L 464.62,281.82 L 471.09,281.82 L 477.56,281.82 L 484.02,281.82 L 490.49,281.82 L 496.96,281.82 L 503.43,281.82 L 509.89,281.82 L 516.36,281.82 L 522.83,281.82 L 529.29,281.82 L 535.76,281.82 L 542.23,281.82 L 548.69,281.82 L 555.16,281.82 L 561.63,281.82 L 568.10,281.82 L 574.56,281.82 L 581.03,281.82 L 587.50,281.82 L 593.96,281.82 L 600.43,281.82 L 606.90,281.82 L 613.37,281.82 L 619.83,281.82 L 626.30,281.82 L 632.77,281.82 L 639.23,281.82 L 645.70,281.82 L 652.17,281.82 L 658.63,281.82 L 665.10,281.82 L 671.57,281.82 L 678.04,281.82 L 684.50,281.82 L 690.97,281.82 L 697.44,281.82 L 703.90,281.82 L 710.37,281.82 L 716.84,281.82 L 723.31,281.82 L 729.77,281.82 L 736.24,281.82 L 742.71,281.82 L 749.17,281.82 L 755.64,281.82 L 762.11,281.82 L 768.57,281.82 L 775.04,281.82 L 781.51,281.82 L 787.98,281.82 L 794.44,281.82 L 800.91,281.82 L 807.38,281.82 L 813.84,281.82 L 820.31,281.82 L 826.78,281.82 L 833.25,281.82 L 839.71,281.82 L 846.18,281.82 L 852.65,281.82 L 859.11,281.82 L 865.58,281.82 L 872.05,281.82 L 878.51,281.82 L 884.98,281.82 L 891.45,281.82 L 897.92,281.82 L 904.38,281.82 L 910.85,281.82 L 917.32,281.82 L 923.78,281.82 L 930.25,281.82 L 936.72,281.82 L 943.19,281.82 L 949.65,281.82 L 956.12,281.82 L 962.59,281.82 L 969.05,281.82 L 975.52,281.82 L 981.99,281.82 L 988.46,281.82 L 994.92,281.82 L 1001.39,281.82 L 1007.86,281.82 L 1014.32,281.82 L 1020.79,281.82 L 1027.26,281.82 L 1033.72,281.82 L 1040.19,281.82 L 1046.66,281.82 L 1053.13,281.82 L 1059.59,281.82 L 1066.06,281.82 L 1072.53,281.82 L 1078.99,281.82 L 1085.46,281.82 L 1091.93,281.82 L 1098.40,281.82 L 1104.86,281.82 L 1111.33,281.82 L 1117.80,281.82 L 1124.26,281.82 L 1130.73,281.82 L 1137.20,281.82 L 1143.66,281.82 L 1150.13,281.82 L 1156.60,281.82 L 1163.07,281.82 L 1169.53,281.82 L 1176.00,281.82" stroke-width="1.2" stroke-linejoin="round" stroke-linecap="round" fill="none"/>
<path d="M 96.00,320.45 L 102.47,320.45 L 108.93,320.45 L 115.40,320.45 L 121.87,320.45 L 128.34,320.45 L 134.80,320.45 L 141.27,320.45 L 147.74,320.45 L 154.20,320.45 L 160.67,320.45 L 167.14,320.45 L 173.60,320.45 L 180.07,320.45 L 186.54,320.45 L 193.01,320.45 L 199.47,320.45 L 205.94,320.45 L 212.41,320.45 L 218.87,320.45 L 225.34,320.45 L 231.81,320.45 L 238.28,320.45 L 244.74,320.45 L 251.21,320.45 L 257.68,320.45 L 264.14,320.45 L 270.61,320.45 L 277.08,320.45 L 283.54,320.45 L 290.01,320.45 L 296.48,320.45 L 302.95,320.45 L 309.41,320.45 L 315.88,320.45 L 322.35,320.45 L 328.81,320.45 L 335.28,320.45 L 341.75,320.45 L 348.22,320.45 L 354.68,320.45 L 361.15,320.45 L 367.62,320.45 L 374.08,320.45 L 380.55,320.45 L 387.02,320.45 L 393.49,320.45 L 399.95,320.45 L 406.42,320.45 L 412.89,320.45 L 419.35,320.45 L 425.82,320.45 L 432.29,320.45 L 438.75,320.45 L 445.22,320.45 L 451.69,320.45 L 458.16,320.45 L 464.62,320.45 L 471.09,320.45 L 477.56,320.45 L 484.02,320.45 L 490.49,320.45 L 496.96,320.45 L 503.43,320.45 L 509.89,320.45 L 516.36,320.45 L 522.83,320.45 L 529.29,320.45 L 535.76,320.45 L 542.23,320.45 L 548.69,320.45 L 555.16,320.45 L 561.63,320.45 L 568.10,320.45 L 574.56,320.45 L 581.03,320.45 L 587.50,320.45 L 593.96,320.45 L 600.43,320.45 L 606.90,320.45 L 613.37,320.45 L 619.83,320.45 L 626.30,320.45 L 632.77,320.45 L 639.23,320.45 L 645.70,320.45 L 652.17,320.45 L 658.63,320.45 L 665.10,320.45 L 671.57,320.45 L 678.04,320.45 L 684.50,320.45 L 690.97,320.45 L 697.44,320.45 L 703.90,320.45 L 710.37,320.45 L 716.84,320.45 L 723.31,320.45 L 729.77,320.45 L 736.24,320.45 L 742.71,320.45 L 749.17,320.45 L 755.64,320.45 L 762.11,320.45 L 768.57,320.45 L 775.04,320.45 L 781.51,320.45 L 787.98,320.45 L 794.44,320.45 L 800.91,320.45 L 807.38,320.45 L 813.84,320.45 L 820.31,320.45 L 826.78,320.45 L 833.25,320.45 L 839.71,320.45 L 846.18,320.45 L 852.65,320.45 L 859.11,320.45 L 865.58,320.45 L 872.05,320.45 L 878.51,320.45 L 884.98,320.45 L 891.45,320.45 L 897.92,320.45 L 904.38,320.45 L 910.85,320.45 L 917.32,320.45 L 923.78,320.45 L 930.25,320.45 L 936.72,320.45 L 943.19,320.45 L 949.65,320.45 L 956.12,320.45 L 962.59,320.45 L 969.05,320.45 L 975.52,320.45 L 981.99,320.45 L 988.46,320.45 L 994.92,320.45 L 1001.39,320.45 L 1007.86,320.45 L 1014.32,320.45 L 1020.79,320.45 L 1027.26,320.45 L 1033.72,320.45 L 1040.19,320.45 L 1046.66,320.45 L 1053.13,320.45 L 1059.59,320.45 L 1066.06,320.45 L 1072.53,320.45 L 1078.99,320.45 L 1085.46,320.45 L 1091.93,320.45 L 1098.40,320.45 L 1104.86,320.45 L 1111.33,320.45 L 1117.80,320.45 L 1124.26,320.45 L 1130.73,320.45 L 1137.20,320.45 L 1143.66,320.45 L 1150.13,320.45 L 1156.60,320.45 L 1163.07,320.45 L 1169.53,320.45 L 1176.00,320.45" stroke-width="1.2" stroke-linejoin="round" stroke-linecap="round" fill="none"/>
<path d="M 96.00,359.09 L 102.47,359.09 L 108.93,359.09 L 115.40,359.09 L 121.87,359.09 L 128.34,359.09 L 134.80,359.09 L 141.27,359.09 L 147.74,359.09 L 154.20,359.09 L 160.67,359.09 L 167.14,359.09 L 173.60,359.09 L 180.07,359.09 L 186.54,359.09 L 193.01,359.09 L 199.47,359.09 L 205.94,359.09 L 212.41,359.09 L 218.87,359.09 L 225.34,359.09 L 231.81,359.09 L 238.28,359.09 L 244.74,359.09 L 251.21,359.09 L 257.68,359.09 L 264.14,359.09 L 270.61,359.09 L 277.08,359.09 L 283.54,359.09 L 290.01,359.09 L 296.48,359.09 L 302.95,359.09 L 309.41,359.09 L 315.88,359.09 L 322.35,359.09 L 328.81,359.09 L 335.28,359.09 L 341.75,359.09 L 348.22,359.09 L 354.68,359.09 L 361.15,359.09 L 367.62,359.09 L 374.08,359.09 L 380.55,359.09 L 387.02,359.09 L 393.49,359.09 L 399.95,359.09 L 406.42,359.09 L 412.89,359.09 L 419.35,359.09 L 425.82,359.09 L 432.29,359.09 L 438.75,359.09 L 445.22,359.09 L 451.69,359.09 L 458.16,359.09 L 464.62,359.09 L 471.09,359.09 L 477.56,359.09 L 484.02,359.09 L 490.49,359.09 L 496.96,359.09 L 503.43,359.09 L 509.89,359.09 L 516.36,359.09 L 522.83,359.09 L 529.29,359.09 L 535.76,359.09 L 542.23,359.09 L 548.69,359.09 L 555.16,359.09 L 561.63,359.09 L 568.10,359.09 L 574.56,359.09 L 581.03,359.09 L 587.50,359.09 L 593.96,359.09 L 600.43,359.09 L 606.90,359.09 L 613.37,359.09 L 619.83,359.09 L 626.30,359.09 L 632.77,359.09 L 639.23,359.09 L 645.70,359.09 L 652.17,359.09 L 658.63,359.09 L 665.10,359.09 L 671.57,359.09 L 678.04,359.09 L 684.50,359.09 L 690.97,359.09 L 697.44,359.09 L 703.90,359.09 L 710.37,359.09 L 716.84,359.09 L 723.31,359.09 L 729.77,359.09 L 736.24,359.09 L 742.71,359.09 L 749.17,359.09 L 755.64,359.09 L 762.11,359.09 L 768.57,359.09 L 775.04,359.09 L 781.51,359.09 L 787.98,359.09 L 794.44,359.09 L 800.91,359.09 L 807.38,359.09 L 813.84,359.09 L 820.31,359.09 L 826.78,359.09 L 833.25,359.09 L 839.71,359.09 L 846.18,359.09 L 852.65,359.09 L 859.11,359.09 L 865.58,359.09 L 872.05,359.09 L 878.51,359.09 L 884.98,359.09 L 891.45,359.09 L 897.92,359.09 L 904.38,359.09 L 910.85,359.09 L 917.32,359.09 L 923.78,359.09 L 930.25,359.09 L 936.72,359.09 L 943.19,359.09 L 949.65,359.09 L 956.12,359.09 L 962.59,359.09 L 969.05,359.09 L 975.52,359.09 L 981.99,359.09 L 988.46,359.09 L 994.92,359.09 L 1001.39,359.09 L 1007.86,359.09 L 1014.32,359.09 L 1020.79,359.09 L 1027.26,359.09 L 1033.72,359.09 L 1040.19,359.09 L 1046.66,359.09 L 1053.13,359.09 L 1059.59,359.09 L 1066.06,359.09 L 1072.53,359.09 L 1078.99,359.09 L 1085.46,359.09 L 1091.93,359.09 L 1098.40,359.09 L 1104.86,359.09 L 1111.33,359.09 L 1117.80,359.09 L 1124.26,359.09 L 1130.73,359.09 L 1137.20,359.09 L 1143.66,359.09 L 1150.13,359.09 L 1156.60,359.09 L 1163.07,359.09 L 1169.53,359.09 L 1176.00,359.09" stroke-width="1.2" stroke-linejoin="round" stroke-linecap="round" fill="none"/>
<path d="M 96.00,397.73 L 102.47,397.73 L 108.93,397.73 L 115.40,397.73 L 121.87,397.73 L 128.34,397.73 L 134.80,397.73 L 141.27,397.73 L 147.74,397.73 L 154.20,397.73 L 160.67,397.73 L 167.14,397.73 L 173.60,397.73 L 180.07,397.73 L 186.54,397.73 L 193.01,397.73 L 199.47,397.73 L 205.94,397.73 L 212.41,397.73 L 218.87,397.73 L 225.34,397.73 L 231.81,397.73 L 238.28,397.73 L 244.74,397.73 L 251.21,397.73 L 257.68,397.73 L 264.14,397.73 L 270.61,397.73 L 277.08,397.73 L 283.54,397.73 L 290.01,397.73 L 296.48,397.73 L 302.95,397.73 L 309.41,397.73 L 315.88,397.73 L 322.35,397.73 L 328.81,397.73 L 335.28,397.73 L 341.75,397.73 L 348.22,397.73 L 354.68,397.73 L 361.15,397.73 L 367.62,397.73 L 374.08,397.73 L 380.55,397.73 L 387.02,397.73 L 393.49,397.73 L 399.95,397.73 L 406.42,397.73 L 412.89,397.73 L 419.35,397.73 L 425.82,397.73 L 432.29,397.73 L 438.75,397.73 L 445.22,397.73 L 451.69,397.73 L 458.16,397.73 L 464.62,397.73 L 471.09,397.73 L 477.56,397.73 L 484.02,397.73 L 490.49,397.73 L 496.96,397.73 L 503.43,397.73 L 509.89,397.73 L 516.36,397.73 L 522.83,397.73 L 529.29,397.73 L 535.76,397.73 L 542.23,397.73 L 548.69,397.73 L 555.16,397.73 L 561.63,397.73 L 568.10,397.73 L 574.56,397.73 L 581.03,397.73 L 587.50,397.73 L 593.96,397.73 L 600.43,397.73 L 606.90,397.73 L 613.37,397.73 L 619.83,397.73 L 626.30,397.73 L 632.77,397.73 L 639.23,397.73 L 645.70,397.73 L 652.17,397.73 L 658.63,397.73 L 665.10,397.73 L 671.57,397.73 L 678.04,397.73 L 684.50,397.73 L 690.97,397.73 L 697.44,397.73 L 703.90,397.73 L 710.37,397.73 L 716.84,397.73 L 723.31,397.73 L 729.77,397.73 L 736.24,397.73 L 742.71,397.73 L 749.17,397.73 L 755.64,397.73 L 762.11,397.73 L 768.57,397.73 L 775.04,397.73 L 781.51,397.73 L 787.98,397.73 L 794.44,397.73 L 800.91,397.73 L 807.38,397.73 L 813.84,397.73 L 820.31,397.73 L 826.78,397.73 L 833.25,397.73 L 839.71,397.73 L 846.18,397.73 L 852.65,397.73 L 859.11,397.73 L 865.58,397.73 L 872.05,397.73 L 878.51,397.73 L 884.98,397.73 L 891.45,397.73 L 897.92,397.73 L 904.38,397.73 L 910.85,397.73 L 917.32,397.73 L 923.78,397.73 L 930.25,397.73 L 936.72,397.73 L 943.19,397.73 L 949.65,397.73 L 956.12,397.73 L 962.59,397.73 L 969.05,397.73 L 975.52,397.73 L 981.99,397.73 L 988.46,397.73 L 994.92,397.73 L 1001.39,397.73 L 1007.86,397.73 L 1014.32,397.73 L 1020.79,397.73 L 1027.26,397.73 L 1033.72,397.73 L 1040.19,397.73 L 1046.66,397.73 L 1053.13,397.73 L 1059.59,397.73 L 1066.06,397.73 L 1072.53,397.73 L 1078.99,397.73 L 1085.46,397.73 L 1091.93,397.73 L 1098.40,397.73 L 1104.86,397.73 L 1111.33,397.73 L 1117.80,397.73 L 1124.26,397.73 L 1130.73,397.73 L 1137.20,397.73 L 1143.66,397.73 L 1150.13,397.73 L 1156.60,397.73 L 1163.07,397.73 L 1169.53,397.73 L 1176.00,397.73" stroke-width="1.2" stroke-linejoin="round" stroke-linecap="round" fill="none"/>
<path d="M 96.00,436.36 L 102.47,436.36 L 108.93,436.36 L 115.40,436.36 L 121.87,436.36 L 128.34,436.36 L 134.80,436.36 L 141.27,436.36 L 147.74,436.36 L 154.20,436.36 L 160.67,436.36 L 167.14,436.36 L 173.60,436.36 L 180.07,436.36 L 186.54,436.36 L 193.01,436.36 L 199.47,436.36 L 205.94,436.36 L 212.41,436.36 L 218.87,436.36 L 225.34,436.36 L 231.81,436.36 L 238.28,436.36 L 244.74,436.36 L 251.21,436.36 L 257.68,436.36 L 264.14,436.36 L 270.61,436.36 L 277.08,436.36 L 283.54,436.36 L 290.01,436.36 L 296.48,436.36 L 302.95,436.36 L 309.41,436.36 L 315.88,436.36 L 322.35,436.36 L 328.81,436.36 L 335.28,436.36 L 341.75,436.36 L 348.22,436.36 L 354.68,436.36 L 361.15,436.36 L 367.62,436.36 L 374.08,436.36 L 380.55,436.36 L 387.02,436.36 L 393.49,436.36 L 399.95,436.36 L 406.42,436.36 L 412.89,436.36 L 419.35,436.36 L 425.82,436.36 L 432.29,436.36 L 438.75,436.36 L 445.22,436.36 L 451.69,436.36 L 458.16,436.36 L 464.62,436.36 L 471.09,436.36 L 477.56,436.36 L 484.02,436.36 L 490.49,436.36 L 496.96,436.36 L 503.43,436.36 L 509.89,436.36 L 516.36,436.36 L 522.83,436.36 L 529.29,436.36 L 535.76,436.36 L 542.23,436.36 L 548.69,436.36 L 555.16,436.36 L 561.63,436.36 L 568.10,436.36 L 574.56,436.36 L 581.03,436.36 L 587.50,436.36 L 593.96,436.36 L 600.43,436.36 L 606.90,436.36 L 613.37,436.36 L 619.83,436.36 L 626.30,436.36 L 632.77,436.36 L 639.23,436.36 L 645.70,436.36 L 652.17,436.36 L 658.63,436.36 L 665.10,436.36 L 671.57,436.36 L 678.04,436.36 L 684.50,436.36 L 690.97,436.36 L 697.44,436.36 L 703.90,436.36 L 710.37,436.36 L 716.84,436.36 L 723.31,436.36 L 729.77,436.36 L 736.24,436.36 L 742.71,436.36 L 749.17,436.36 L 755.64,436.36 L 762.11,436.36 L 768.57,436.36 L 775.04,436.36 L 781.51,436.36 L 787.98,436.36 L 794.44,436.36 L 800.91,436.36 L 807.38,436.36 L 813.84,436.36 L 820.31,436.36 L 826.78,436.36 L 833.25,436.36 L 839.71,436.36 L 846.18,436.36 L 852.65,436.36 L 859.11,436.36 L 865.58,436.36 L 872.05,436.36 L 878.51,436.36 L 884.98,436.36 L 891.45,436.36 L 897.92,436.36 L 904.38,436.36 L 910.85,436.36 L 917.32,436.36 L 923.78,436.36 L 930.25,436.36 L 936.72,436.36 L 943.19,436.36 L 949.65,436.36 L 956.12,436.36 L 962.59,436.36 L 969.05,436.36 L 975.52,436.36 L 981.99,436.36 L 988.46,436.36 L 994.92,436.36 L 1001.39,436.36 L 1007.86,436.36 L 1014.32,436.36 L 1020.79,436.36 L 1027.26,436.36 L 1033.72,436.36 L 1040.19,436.36 L 1046.66,436.36 L 1053.13,436.36 L 1059.59,436.36 L 1066.06,436.36 L 1072.53,436.36 L 1078.99,436.36 L 1085.46,436.36 L 1091.93,436.36 L 1098.40,436.36 L 1104.86,436.36 L 1111.33,436.36 L 1117.80,436.36 L 1124.26,436.36 L 1130.73,436.36 L 1137.20,436.36 L 1143.66,436.36 L 1150.13,436.36 L 1156.60,436.36 L 1163.07,436.36 L 1169.53,436.36 L 1176.00,436.36" stroke-width="1.2" stroke-linejoin="round" stroke-linecap="round" fill="none"/>
<text x="24.0" y="92.6" font-family="sans-serif" font-size="12" text-anchor="start">chasenunez</text>
<text x="24.0" y="131.3" font-family="sans-serif" font-size="12" text-anchor="start">voronoi</text>
<text x="24.0" y="169.9" font-family="sans-serif" font-size="12" text-anchor="start">trmnlp</text>
<text x="24.0" y="208.5" font-family="sans-serif" font-size="12" text-anchor="start">tui_log</text>
<text x="24.0" y="247.2" font-family="sans-serif" font-size="12" text-anchor="start">sunburst_nav</text>
<text x="24.0" y="285.8" font-family="sans-serif" font-size="12" text-anchor="start">DEVO_validator</text>
<text x="24.0" y="324.5" font-family="sans-serif" font-size="12" text-anchor="start">data_HUD</text>
<text x="24.0" y="363.1" font-family="sans-serif" font-size="12" text-anchor="start">recursive_shrink</text>
<text x="24.0" y="401.7" font-family="sans-serif" font-size="12" text-anchor="start">etani_shordul</text>
<text x="24.0" y="440.4" font-family="sans-serif" font-size="12" text-anchor="start">envidat_entrails</text>
</g>
</svg>
