<?xml version="1.0" encoding="UTF-8"?>
<svg xmlns="http://www.w3.org/2000/svg" width="1200" height="500" viewBox="0 0 1200 500" preserveAspectRatio="xMidYMid meet">
<defs>
<style type="text/css"><![CDATA[
:root { --line: #000000; }
@media (prefers-color-scheme: dark) { :root { --line: #ffffff; } }
path { stroke: var(--line); }
text { fill: var(--line); }
svg { background: transparent; }
]]></style>
</defs>
<g>
<path d="M 96.00,88.64 L 102.47,88.64 L 108.93,88.64 L 115.40,88.64 L 121.87,88.64 L 128.34,88.64 L 134.80,88.64 L 141.27,88.64 L 147.74,88.64 L 154.20,88.64 L 160.67,88.64 L 167.14,88.64 L 173.60,88.64 L 180.07,88.64 L 186.54,88.64 L 193.01,88.64 L 199.47,88.64 L 205.94,88.64 L 212.41,88.64 L 218.87,88.64 L 225.34,88.64 L 231.81,88.64 L 238.28,88.64 L 244.74,88.64 L 251.21,88.64 L 257.68,88.64 L 264.14,88.64 L 270.61,88.64 L 277.08,88.64 L 283.54,88.64 L 290.01,88.64 L 296.48,88.64 L 302.95,88.64 L 309.41,88.64 L 315.88,88.64 L 322.35,88.64 L 328.81,88.64 L 335.28,88.64 L 341.75,88.64 L 348.22,88.64 L 354.68,88.64 L 361.15,88.64 L 367.62,88.64 L 374.08,88.64 L 380.55,88.64 L 387.02,88.64 L 393.49,88.64 L 399.95,88.64 L 406.42,88.64 L 412.89,88.64 L 419.35,88.64 L 425.82,88.64 L 432.29,88.64 L 438.75,88.64 L 445.22,88.64 L 451.69,88.64 L 458.16,88.64 L 464.62,88.64 L 471.09,88.64 L 477.56,88.64 L 484.02,88.64 L 490.49,88.64 L 496.96,88.64 L 503.43,88.64 L 509.89,88.64 L 516.36,88.64 L 522.83,88.64 L 529.29,88.64 L 535.76,88.64 L 542.23,88.64 L 548.69,88.64 L 555.16,88.64 L 561.63,88.64 L 568.10,88.64 L 574.56,88.64 L 581.03,88.64 L 587.50,88.64 L 593.96,88.64 L 600.43,88.64 L 606.90,88.64 L 613.37,88.64 L 619.83,88.64 L 626.30,88.64 L 632.77,88.64 L 639.23,88.64 L 645.70,88.64 L 652.17,88.64 L 658.63,88.64 L 665.10,88.64 L 671.57,88.64 L 678.04,88.64 L 684.50,88.64 L 690.97,88.64 L 697.44,88.64 L 703.90,88.64 L 710.37,88.64 L 716.84,88.64 L 723.31,88.64 L 729.77,88.64 L 736.24,88.64 L 742.71,88.64 L 749.17,88.64 L 755.64,88.64 L 762.11,88.64 L 768.57,88.64 L 775.04,88.64 L 781.51,88.64 L 787.98,88.64 L 794.44,88.64 L 800.91,88.64 L 807.38,88.64 L 813.84,88.64 L 820.31,88.64 L 826.78,88.64 L 833.25,88.64 L 839.71,88.64 L 846.18,88.64 L 852.65,88.64 L 859.11,88.64 L 865.58,88.64 L 872.05,88.64 L 878.51,88.64 L 884.98,88.64 L 891.45,88.64 L 897.92,88.64 L 904.38,88.64 L 910.85,88.64 L 917.32,88.64 L 923.78,88.64 L 930.25,88.64 L 936.72,88.64 L 943.19,88.64 L 949.65,88.64 L 956.12,88.64 L 962.59,88.64 L 969.05,88.64 L 975.52,88.64 L 981.99,88.64 L 988.46,88.64 L 994.92,88.64 L 1001.39,88.64 L 1007.86,88.64 L 1014.32,88.64 L 1020.79,88.64 L 1027.26,88.64 L 1033.72,88.64 L 1040.19,88.64 L 1046.66,88.64 L 1053.13,88.64 L 1059.59,88.64 L 1066.06,88.64 L 1072.53,88.64 L 1078.99,88.64 L 1085.46,88.64 L 1091.93,88.64 L 1098.40,88.64 L 1104.86,88.64 L 1111.33,88.64 L 1117.80,88.64 L 1124.26,88.64 L 1130.73,88.64 L 1137.20,88.64 L 1143.66,88.64 L 1150.13,88.64 L 1156.60,88.64 L 1163.07,88.64 L 1169.53,88.64 L 1176.00,88.64" stroke-width="1.2" stroke-linejoin="round" stroke-linecap="round" fill="none"/>
<path d="M 96.00,127.27 L 102.47,127.27 L 108.93,127.27 L 115.40,127.27 L 121.87,127.27 L 128.34,127.27 L 134.80,127.27 L 141.27,127.27 L 147.74,127.27 L 154.20,127.27 L 160.67,127.27 L 167.14,127.27 L 173.60,127.27 L 180.07,127.27 L 186.54,127.27 L 193.01,127.27 L 199.47,127.27 L 205.94,127.27 L 212.41,127.27 L 218.87,127.27 L 225.34,127.27 L 231.81,127.27 L 238.28,127.27 L 244.74,127.27 L 251.21,127.27 L 257.68,127.27 L 264.14,127.27 L 270.61,127.27 L 277.08,127.27 L 283.54,127.27 L 290.01,127.27 L 296.48,127.27 L 302.95,127.27 L 309.41,127.27 L 315.88,127.27 L 322.35,127.27 L 328.81,127.27 L 335.28,127.27 L 341.75,127.27 L 348.22,127.27 L 354.68,127.27 L 361.15,127.27 L 367.62,127.27 L 374.08,127.27 L 380.55,127.27 L 387.02,127.27 L 393.49,127.27 L 399.95,127.27 L 406.42,127.27 L 412.89,127.27 L 419.35,127.27 L 425.82,127.27 L 432.29,127.27 L 438.75,127.27 L 445.22,127.27 L 451.69,127.27 L 458.16,127.27 L 464.62,127.27 L 471.09,127.27 L 477.56,127.27 L 484.02,127.27 L 490.49,127.27 L 496.96,127.27 L 503.43,127.27 L 509.89,127.27 L 516.36,127.27 L 522.83,127.27 L 529.29,127.27 L 535.76,127.27 L 542.23,127.27 L 548.69,127.27 L 555.16,127.27 L 561.63,127.27 L 568.10,127.27 L 574.56,127.27 L 581.03,127.27 L 587.50,127.27 L 593.96,127.27 L 600.43,127.27 L 606.90,127.27 L 613.37,127.27 L 619.83,127.27 L 626.30,127.27 L 632.77,127.27 L 639.23,127.27 L 645.70,127.27 L 652.17,127.27 L 658.63,127.27 L 665.10,127.27 L 671.57,127.27 L 678.04,127.27 L 684.50,127.27 L 690.97,127.27 L 697.44,127.27 L 703.90,127.27 L 710.37,127.27 L 716.84,127.27 L 723.31,127.27 L 729.77,127.27 L 736.24,127.27 L 742.71,127.27 L 749.17,127.27 L 755.64,127.27 L 762.11,127.27 L 768.57,127.27 L 775.04,127.27 L 781.51,127.27 L 787.98,127.27 L 794.44,127.27 L 800.91,127.27 L 807.38,127.27 L 813.84,127.27 L 820.31,127.27 L 826.78,127.27 L 833.25,127.27 L 839.71,127.27 L 846.18,127.27 L 852.65,127.27 L 859.11,127.27 L 865.58,127.27 L 872.05,127.27 L 878.51,127.27 L 884.98,127.27 L 891.45,127.27 L 897.92,127.27 L 904.38,127.27 L 910.85,127.27 L 917.32,127.27 L 923.78,127.27 L 930.25,127.27 L 936.72,127.27 L 943.19,127.27 L 949.65,127.27 L 956.12,127.27 L 962.59,127.27 L 969.05,127.27 L 975.52,127.27 L 981.99,127.27 L 988.46,127.27 L 994.92,127.27 L 1001.39,127.27 L 1007.86,127.27 L 1014.32,127.27 L 1020.79,127.25 L 1027.26,127.19 L 1033.72,127.13 L 1040.19,127.08 L 1046.66,126.94 L 1053.13,126.66 L 1059.59,126.39 L 1066.06,126.11 L 1072.53,125.63 L 1078.99,124.65 L 1085.46,123.68 L 1091.93,122.70 L 1098.40,121.47 L 1104.86,119.30 L 1111.33,117.14 L 1117.80,114.97 L 1124.26,112.72 L 1130.73,109.95 L 1137.20,107.18 L 1143.66,104.41 L 1150.13,101.75 L 1156.60,100.40 L 1163.07,99.06 L 1169.53,97.71 L 1176.00,96.36" stroke-width="1.2" stroke-linejoin="round" stroke-linecap="round" fill="none"/>
<path d="M 96.00,164.18 L 102.47,163.33 L 108.93,162.48 L 115.40,161.63 L 121.87,160.78 L 128.34,159.34 L 134.80,157.87 L 141.27,156.39 L 147.74,154.91 L 154.20,153.18 L 160.67,151.40 L 167.14,149.62 L 173.60,147.84 L 180.07,146.17 L 186.54,144.53 L 193.01,142.89 L 199.47,141.25 L 205.94,139.92 L 212.41,138.71 L 218.87,137.50 L 225.34,136.30 L 231.81,135.72 L 238.28,135.51 L 244.74,135.30 L 251.21,135.09 L 257.68,135.74 L 264.14,137.06 L 270.61,138.37 L 277.08,139.69 L 283.54,141.45 L 290.01,143.67 L 296.48,145.89 L 302.95,148.11 L 309.41,150.13 L 315.88,151.88 L 322.35,153.62 L 328.81,155.37 L 335.28,156.73 L 341.75,157.34 L 348.22,157.96 L 354.68,158.57 L 361.15,158.99 L 367.62,158.85 L 374.08,158.71 L 380.55,158.58 L 387.02,158.43 L 393.49,158.24 L 399.95,158.06 L 406.42,157.87 L 412.89,157.73 L 419.35,157.87 L 425.82,158.01 L 432.29,158.15 L 438.75,158.29 L 445.22,158.56 L 451.69,158.82 L 458.16,159.08 L 464.62,159.35 L 471.09,159.30 L 477.56,159.25 L 484.02,159.19 L 490.49,159.14 L 496.96,158.71 L 503.43,158.23 L 509.89,157.76 L 516.36,157.29 L 522.83,156.78 L 529.29,156.28 L 535.76,155.77 L 542.23,155.26 L 548.69,155.06 L 555.16,154.97 L 561.63,154.87 L 568.10,154.78 L 574.56,155.04 L 581.03,155.48 L 587.50,155.92 L 593.96,156.36 L 600.43,157.01 L 606.90,157.79 L 613.37,158.57 L 619.83,159.35 L 626.30,160.11 L 632.77,160.86 L 639.23,161.60 L 645.70,162.35 L 652.17,162.94 L 658.63,163.34 L 665.10,163.74 L 671.57,164.15 L 678.04,164.39 L 684.50,164.39 L 690.97,164.39 L 697.44,164.39 L 703.90,164.31 L 710.37,164.04 L 716.84,163.78 L 723.31,163.51 L 729.77,163.25 L 736.24,163.00 L 742.71,162.74 L 749.17,162.49 L 755.64,162.28 L 762.11,162.28 L 768.57,162.28 L 775.04,162.28 L 781.51,162.31 L 787.98,162.57 L 794.44,162.84 L 800.91,163.10 L 807.38,163.37 L 813.84,163.68 L 820.31,164.00 L 826.78,164.32 L 833.25,164.64 L 839.71,164.85 L 846.18,165.05 L 852.65,165.25 L 859.11,165.45 L 865.58,165.55 L 872.05,165.63 L 878.51,165.71 L 884.98,165.79 L 891.45,165.82 L 897.92,165.85 L 904.38,165.87 L 910.85,165.89 L 917.32,165.90 L 923.78,165.90 L 930.25,165.90 L 936.72,165.91 L 943.19,165.91 L 949.65,165.91 L 956.12,165.91 L 962.59,165.91 L 969.05,165.91 L 975.52,165.91 L 981.99,165.91 L 988.46,165.91 L 994.92,165.91 L 1001.39,165.91 L 1007.86,165.91 L 1014.32,165.90 L 1020.79,165.90 L 1027.26,165.90 L 1033.72,165.89 L 1040.19,165.88 L 1046.66,165.87 L 1053.13,165.85 L 1059.59,165.83 L 1066.06,165.81 L 1072.53,165.78 L 1078.99,165.73 L 1085.46,165.69 L 1091.93,165.64 L 1098.40,165.59 L 1104.86,165.53 L 1111.33,165.47 L 1117.80,165.41 L 1124.26,165.36 L 1130.73,165.33 L 1137.20,165.30 L 1143.66,165.27 L 1150.13,165.25 L 1156.60,165.28 L 1163.07,165.31 L 1169.53,165.33 L 1176.00,165.36" stroke-width="1.2" stroke-linejoin="round" stroke-linecap="round" fill="none"/>
<path d="M 96.00,202.46 L 102.47,201.25 L 108.93,200.05 L 115.40,198.84 L 121.87,197.63 L 128.34,195.37 L 134.80,193.04 L 141.27,190.70 L 147.74,188.37 L 154.20,185.80 L 160.67,183.19 L 167.14,180.58 L 173.60,177.98 L 180.07,176.68 L 186.54,175.76 L 193.01,174.83 L 199.47,173.91 L 205.94,174.79 L 212.41,176.42 L 218.87,178.05 L 225.34,179.68 L 231.81,182.02 L 238.28,184.76 L 244.74,187.50 L 251.21,190.24 L 257.68,192.54 L 264.14,194.51 L 270.61,196.48 L 277.08,198.45 L 283.54,199.79 L 290.01,200.46 L 296.48,201.13 L 302.95,201.80 L 309.41,202.07 L 315.88,201.78 L 322.35,201.48 L 328.81,201.19 L 335.28,200.73 L 341.75,199.93 L 348.22,199.13 L 354.68,198.33 L 361.15,197.56 L 367.62,196.85 L 374.08,196.15 L 380.55,195.44 L 387.02,194.87 L 393.49,194.87 L 399.95,194.87 L 406.42,194.87 L 412.89,194.96 L 419.35,195.66 L 425.82,196.37 L 432.29,197.08 L 438.75,197.79 L 445.22,198.59 L 451.69,199.39 L 458.16,200.20 L 464.62,201.00 L 471.09,201.34 L 477.56,201.66 L 484.02,201.99 L 490.49,202.32 L 496.96,201.86 L 503.43,201.32 L 509.89,200.78 L 516.36,200.25 L 522.83,198.80 L 529.29,197.16 L 535.76,195.52 L 542.23,193.89 L 548.69,191.81 L 555.16,189.58 L 561.63,187.36 L 568.10,185.13 L 574.56,183.49 L 581.03,182.11 L 587.50,180.74 L 593.96,179.36 L 600.43,179.01 L 606.90,179.30 L 613.37,179.60 L 619.83,179.90 L 626.30,180.67 L 632.77,181.86 L 639.23,183.05 L 645.70,184.24 L 652.17,185.43 L 658.63,186.63 L 665.10,187.84 L 671.57,189.04 L 678.04,190.23 L 684.50,191.39 L 690.97,192.56 L 697.44,193.73 L 703.90,194.85 L 710.37,195.84 L 716.84,196.84 L 723.31,197.83 L 729.77,198.69 L 736.24,199.11 L 742.71,199.52 L 749.17,199.94 L 755.64,200.26 L 762.11,200.12 L 768.57,199.98 L 775.04,199.84 L 781.51,199.70 L 787.98,199.56 L 794.44,199.43 L 800.91,199.29 L 807.38,199.16 L 813.84,199.41 L 820.31,199.66 L 826.78,199.92 L 833.25,200.17 L 839.71,200.63 L 846.18,201.11 L 852.65,201.58 L 859.11,202.06 L 865.58,202.44 L 872.05,202.81 L 878.51,203.19 L 884.98,203.56 L 891.45,203.76 L 897.92,203.93 L 904.38,204.10 L 910.85,204.27 L 917.32,204.35 L 923.78,204.39 L 930.25,204.44 L 936.72,204.49 L 943.19,204.51 L 949.65,204.52 L 956.12,204.53 L 962.59,204.54 L 969.05,204.55 L 975.52,204.55 L 981.99,204.55 L 988.46,204.55 L 994.92,204.54 L 1001.39,204.54 L 1007.86,204.53 L 1014.32,204.53 L 1020.79,204.51 L 1027.26,204.49 L 1033.72,204.47 L 1040.19,204.44 L 1046.66,204.40 L 1053.13,204.31 L 1059.59,204.23 L 1066.06,204.15 L 1072.53,204.03 L 1078.99,203.85 L 1085.46,203.66 L 1091.93,203.48 L 1098.40,203.28 L 1104.86,203.04 L 1111.33,202.80 L 1117.80,202.57 L 1124.26,202.35 L 1130.73,202.23 L 1137.20,202.11 L 1143.66,202.00 L 1150.13,201.90 L 1156.60,202.02 L 1163.07,202.13 L 1169.53,202.25 L 1176.00,202.36" stroke-width="1.2" stroke-linejoin="round" stroke-linecap="round" fill="none"/>
<path d="M 96.00,243.18 L 102.47,243.18 L 108.93,243.18 L 115.40,243.18 L 121.87,243.18 L 128.34,243.18 L 134.80,243.18 L 141.27,243.18 L 147.74,243.18 L 154.20,243.18 L 160.67,243.18 L 167.14,243.18 L 173.60,243.18 L 180.07,243.18 L 186.54,243.18 L 193.01,243.18 L 199.47,243.18 L 205.94,243.18 L 212.41,243.18 L 218.87,243.18 L 225.34,243.18 L 231.81,243.18 L 238.28,243.18 L 244.74,243.18 L 251.21,243.18 L 257.68,243.18 L 264.14,243.18 L 270.61,243.18 L 277.08,243.18 L 283.54,243.18 L 290.01,243.18 L 296.48,243.18 L 302.95,243.18 L 309.41,243.18 L 315.88,243.18 L 322.35,243.18 L 328.81,243.18 L 335.28,243.18 L 341.75,243.18 L 348.22,243.18 L 354.68,243.18 L 361.15,243.18 L 367.62,243.18 L 374.08,243.18 L 380.55,243.18 L 387.02,243.18 L 393.49,243.18 L 399.95,243.18 L 406.42,243.18 L 412.89,243.18 L 419.35,243.18 L 425.82,243.18 L 432.29,243.18 L 438.75,243.18 L 445.22,243.18 L 451.69,243.18 L 458.16,243.18 L 464.62,243.18 L 471.09,243.18 L 477.56,243.18 L 484.02,243.18 L 490.49,243.18 L 496.96,243.18 L 503.43,243.18 L 509.89,243.18 L 516.36,243.18 L 522.83,243.18 L 529.29,243.18 L 535.76,243.18 L 542.23,243.18 L 548.69,243.18 L 555.16,243.18 L 561.63,243.18 L 568.10,243.18 L 574.56,243.18 L 581.03,243.18 L 587.50,243.18 L 593.96,243.18 L 600.43,243.18 L 606.90,243.18 L 613.37,243.18 L 619.83,243.18 L 626.30,243.18 L 632.77,243.18 L 639.23,243.18 L 645.70,243.18 L 652.17,243.16 L 658.63,243.10 L 665.10,243.05 L 671.57,242.99 L 678.04,242.86 L 684.50,242.59 L 690.97,242.33 L 697.44,242.06 L 703.90,241.59 L 710.37,240.65 L 716.84,239.71 L 723.31,238.77 L 729.77,237.54 L 736.24,235.43 L 742.71,233.32 L 749.17,231.21 L 755.64,228.99 L 762.11,226.22 L 768.57,223.46 L 775.04,220.70 L 781.51,218.07 L 787.98,216.61 L 794.44,215.15 L 800.91,213.70 L 807.38,212.30 L 813.84,213.48 L 820.31,214.66 L 826.78,215.84 L 833.25,217.02 L 839.71,219.64 L 846.18,222.34 L 852.65,225.03 L 859.11,227.72 L 865.58,229.96 L 872.05,232.14 L 878.51,234.32 L 884.98,236.49 L 891.45,237.59 L 897.92,238.43 L 904.38,239.27 L 910.85,240.11 L 917.32,240.14 L 923.78,239.88 L 930.25,239.62 L 936.72,239.36 L 943.19,238.60 L 949.65,237.59 L 956.12,236.58 L 962.59,235.56 L 969.05,234.30 L 975.52,232.86 L 981.99,231.43 L 988.46,229.99 L 994.92,228.66 L 1001.39,227.44 L 1007.86,226.21 L 1014.32,224.99 L 1020.79,224.22 L 1027.26,224.03 L 1033.72,223.85 L 1040.19,223.66 L 1046.66,223.95 L 1053.13,225.05 L 1059.59,226.14 L 1066.06,227.24 L 1072.53,228.47 L 1078.99,230.02 L 1085.46,231.56 L 1091.93,233.11 L 1098.40,234.54 L 1104.86,235.58 L 1111.33,236.62 L 1117.80,237.66 L 1124.26,238.61 L 1130.73,239.06 L 1137.20,239.50 L 1143.66,239.95 L 1150.13,240.38 L 1156.60,240.62 L 1163.07,240.86 L 1169.53,241.10 L 1176.00,241.34" stroke-width="1.2" stroke-linejoin="round" stroke-linecap="round" fill="none"/>
<path d="M 96.00,281.82 L 102.47,281.82 L 108.93,281.82 L 115.40,281.82 L 121.87,281.82 L 128.34,281.82 L 134.80,281.82 L 141.27,281.82 L 147.74,281.82 L 154.20,281.82 L 160.67,281.82 L 167.14,281.82 L 173.60,281.82 L 180.07,281.82 L 186.54,281.82 L 193.01,281.82 L 199.47,281.82 L 205.94,281.82 L 212.41,281.82 L 218.87,281.82 L 225.34,281.82 L 231.81,281.82 L 238.28,281.82 L 244.74,281.82 L 251.21,281.82 L 257.68,281.82 L 264.14,281.82 L 270.61,281.82 L 277.08,281.82 L 283.54,281.82 L 290.01,281.82 L 296.48,281.82 L 302.95,281.82 L 309.41,281.82 L 315.88,281.82 L 322.35,281.82 L 328.81,281.82 L 335.28,281.82 L 341.75,281.82 L 348.22,281.82 L 354.68,281.82 L 361.15,281.82 L 367.62,281.82 L 374.08,281.82 L 380.55,281.82 L 387.02,281.82 L 393.49,281.82 L 399.95,281.82 L 406.42,281.82 L 412.89,281.82 L 419.35,281.82 L 425.82,281.82 L 432.29,281.82 L 438.75,281.82 L 445.22,281.82 L 451.69,281.82 L 458.16,281.82 L 464.62,281.82 L 471.09,281.82 L 477.56,281.82 L 484.02,281.82 L 490.49,281.82 L 496.96,281.82 L 503.43,281.82 L 509.89,281.82 L 516.36,281.82 L 522.83,281.82 L 529.29,281.82 L 535.76,281.82 L 542.23,281.82 L 548.69,281.82 L 555.16,281.82 L 561.63,281.82 L 568.10,281.82 L 574.56,281.82 L 581.03,281.82 L 587.50,281.82 L 593.96,281.82 L 600.43,281.80 L 606.90,281.76 L 613.37,281.72 L 619.83,281.69 L 626.30,281.57 L 632.77,281.39 L 639.23,281.20 L 645.70,281.02 L 652.17,280.61 L 658.63,279.93 L 665.10,279.26 L 671.57,278.58 L 678.04,277.54 L 684.50,275.94 L 690.97,274.33 L 697.44,272.72 L 703.90,270.86 L 710.37,268.46 L 716.84,266.05 L 723.31,263.65 L 729.77,261.32 L 736.24,259.25 L 742.71,257.17 L 749.17,255.09 L 755.64,253.26 L 762.11,252.66 L 768.57,252.06 L 775.04,251.45 L 781.51,251.00 L 787.98,251.92 L 794.44,252.85 L 800.91,253.77 L 807.38,254.72 L 813.84,256.49 L 820.31,258.25 L 826.78,260.02 L 833.25,261.78 L 839.71,263.68 L 846.18,265.59 L 852.65,267.50 L 859.11,269.41 L 865.58,270.99 L 872.05,272.51 L 878.51,274.04 L 884.98,275.57 L 891.45,276.60 L 897.92,277.52 L 904.38,278.43 L 910.85,279.34 L 917.32,279.88 L 923.78,280.27 L 930.25,280.66 L 936.72,281.05 L 943.19,281.26 L 949.65,281.38 L 956.12,281.50 L 962.59,281.62 L 969.05,281.66 L 975.52,281.65 L 981.99,281.64 L 988.46,281.63 L 994.92,281.56 L 1001.39,281.44 L 1007.86,281.31 L 1014.32,281.18 L 1020.79,280.98 L 1027.26,280.67 L 1033.72,280.37 L 1040.19,280.06 L 1046.66,279.71 L 1053.13,279.28 L 1059.59,278.85 L 1066.06,278.42 L 1072.53,278.03 L 1078.99,277.74 L 1085.46,277.44 L 1091.93,277.15 L 1098.40,276.94 L 1104.86,277.02 L 1111.33,277.10 L 1117.80,277.19 L 1124.26,277.31 L 1130.73,277.68 L 1137.20,278.05 L 1143.66,278.43 L 1150.13,278.80 L 1156.60,279.18 L 1163.07,279.57 L 1169.53,279.95 L 1176.00,280.33" stroke-width="1.2" stroke-linejoin="round" stroke-linecap="round" fill="none"/>
<path d="M 96.00,320.45 L 102.47,320.45 L 108.93,320.45 L 115.40,320.45 L 121.87,320.45 L 128.34,320.45 L 134.80,320.45 L 141.27,320.45 L 147.74,320.45 L 154.20,320.45 L 160.67,320.45 L 167.14,320.45 L 173.60,320.45 L 180.07,320.45 L 186.54,320.45 L 193.01,320.45 L 199.47,320.45 L 205.94,320.45 L 212.41,320.45 L 218.87,320.45 L 225.34,320.45 L 231.81,320.45 L 238.28,320.45 L 244.74,320.45 L 251.21,320.45 L 257.68,320.45 L 264.14,320.45 L 270.61,320.45 L 277.08,320.45 L 283.54,320.45 L 290.01,320.45 L 296.48,320.45 L 302.95,320.45 L 309.41,320.45 L 315.88,320.45 L 322.35,320.45 L 328.81,320.45 L 335.28,320.45 L 341.75,320.45 L 348.22,320.45 L 354.68,320.45 L 361.15,320.45 L 367.62,320.45 L 374.08,320.45 L 380.55,320.45 L 387.02,320.45 L 393.49,320.45 L 399.95,320.45 L 406.42,320.45 L 412.89,320.45 L 419.35,320.45 L 425.82,320.45 L 432.29,320.45 L 438.75,320.45 L 445.22,320.45 L 451.69,320.45 L 458.16,320.45 L 464.62,320.45 L 471.09,320.45 L 477.56,320.45 L 484.02,320.45 L 490.49,320.45 L 496.96,320.45 L 503.43,320.45 L 509.89,320.45 L 516.36,320.45 L 522.83,320.45 L 529.29,320.45 L 535.76,320.45 L 542.23,320.45 L 548.69,320.45 L 555.16,320.45 L 561.63,320.45 L 568.10,320.45 L 574.56,320.45 L 581.03,320.45 L 587.50,320.45 L 593.96,320.45 L 600.43,320.45 L 606.90,320.45 L 613.37,320.45 L 619.83,320.45 L 626.30,320.45 L 632.77,320.45 L 639.23,320.45 L 645.70,320.45 L 652.17,320.45 L 658.63,320.45 L 665.10,320.45 L 671.57,320.45 L 678.04,320.45 L 684.50,320.45 L 690.97,320.45 L 697.44,320.45 L 703.90,320.45 L 710.37,320.45 L 716.84,320.45 L 723.31,320.45 L 729.77,320.45 L 736.24,320.45 L 742.71,320.45 L 749.17,320.45 L 755.64,320.45 L 762.11,320.45 L 768.57,320.45 L 775.04,320.45 L 781.51,320.45 L 787.98,320.45 L 794.44,320.45 L 800.91,320.45 L 807.38,320.45 L 813.84,320.45 L 820.31,320.45 L 826.78,320.45 L 833.25,320.45 L 839.71,320.45 L 846.18,320.45 L 852.65,320.45 L 859.11,320.45 L 865.58,320.45 L 872.05,320.45 L 878.51,320.45 L 884.98,320.45 L 891.45,320.43 L 897.92,320.39 L 904.38,320.36 L 910.85,320.33 L 917.32,320.18 L 923.78,319.98 L 930.25,319.79 L 936.72,319.60 L 943.19,319.07 L 949.65,318.35 L 956.12,317.64 L 962.59,316.93 L 969.05,315.60 L 975.52,313.84 L 981.99,312.08 L 988.46,310.31 L 994.92,308.07 L 1001.39,305.36 L 1007.86,302.64 L 1014.32,299.93 L 1020.79,297.46 L 1027.26,295.28 L 1033.72,293.10 L 1040.19,290.93 L 1046.66,289.58 L 1053.13,289.67 L 1059.59,289.76 L 1066.06,289.85 L 1072.53,290.57 L 1078.99,292.79 L 1085.46,295.01 L 1091.93,297.23 L 1098.40,299.52 L 1104.86,302.06 L 1111.33,304.61 L 1117.80,307.15 L 1124.26,309.56 L 1130.73,311.16 L 1137.20,312.75 L 1143.66,314.35 L 1150.13,315.88 L 1156.60,316.58 L 1163.07,317.28 L 1169.53,317.98 L 1176.00,318.67" stroke-width="1.2" stroke-linejoin="round" stroke-linecap="round" fill="none"/>
<path d="M 96.00,359.09 L 102.47,359.09 L 108.93,359.09 L 115.40,359.09 L 121.87,359.09 L 128.34,359.09 L 134.80,359.09 L 141.27,359.09 L 147.74,359.09 L 154.20,359.09 L 160.67,359.09 L 167.14,359.09 L 173.60,359.09 L 180.07,359.09 L 186.54,359.09 L 193.01,359.09 L 199.47,359.09 L 205.94,359.09 L 212.41,359.09 L 218.87,359.09 L 225.34,359.09 L 231.81,359.09 L 238.28,359.09 L 244.74,359.09 L 251.21,359.09 L 257.68,359.09 L 264.14,359.09 L 270.61,359.09 L 277.08,359.09 L 283.54,359.09 L 290.01,359.09 L 296.48,359.09 L 302.95,359.09 L 309.41,359.09 L 315.88,359.09 L 322.35,359.09 L 328.81,359.09 L 335.28,359.09 L 341.75,359.09 L 348.22,359.09 L 354.68,359.09 L 361.15,359.09 L 367.62,359.09 L 374.08,359.09 L 380.55,359.09 L 387.02,359.09 L 393.49,359.09 L 399.95,359.09 L 406.42,359.09 L 412.89,359.09 L 419.35,359.09 L 425.82,359.09 L 432.29,359.09 L 438.75,359.09 L 445.22,359.09 L 451.69,359.09 L 458.16,359.09 L 464.62,359.09 L 471.09,359.09 L 477.56,359.09 L 484.02,359.09 L 490.49,359.09 L 496.96,359.09 L 503.43,359.09 L 509.89,359.09 L 516.36,359.09 L 522.83,359.09 L 529.29,359.09 L 535.76,359.09 L 542.23,359.09 L 548.69,359.09 L 555.16,359.09 L 561.63,359.09 L 568.10,359.09 L 574.56,359.09 L 581.03,359.09 L 587.50,359.09 L 593.96,359.09 L 600.43,359.09 L 606.90,359.09 L 613.37,359.09 L 619.83,359.09 L 626.30,359.09 L 632.77,359.09 L 639.23,359.09 L 645.70,359.09 L 652.17,359.09 L 658.63,359.09 L 665.10,359.09 L 671.57,359.09 L 678.04,359.07 L 684.50,359.01 L 690.97,358.95 L 697.44,358.90 L 703.90,358.77 L 710.37,358.49 L 716.84,358.22 L 723.31,357.94 L 729.77,357.50 L 736.24,356.52 L 742.71,355.55 L 749.17,354.57 L 755.64,353.39 L 762.11,351.23 L 768.57,349.06 L 775.04,346.89 L 781.51,344.67 L 787.98,341.90 L 794.44,339.13 L 800.91,336.37 L 807.38,333.63 L 813.84,332.29 L 820.31,330.94 L 826.78,329.59 L 833.25,328.25 L 839.71,329.46 L 846.18,330.81 L 852.65,332.16 L 859.11,333.50 L 865.58,336.10 L 872.05,338.86 L 878.51,341.63 L 884.98,344.40 L 891.45,346.68 L 897.92,348.85 L 904.38,351.01 L 910.85,353.18 L 917.32,354.47 L 923.78,355.45 L 930.25,356.42 L 936.72,357.40 L 943.19,357.91 L 949.65,358.19 L 956.12,358.47 L 962.59,358.74 L 969.05,358.89 L 975.52,358.95 L 981.99,359.01 L 988.46,359.06 L 994.92,359.09 L 1001.39,359.08 L 1007.86,359.07 L 1014.32,359.06 L 1020.79,359.04 L 1027.26,359.00 L 1033.72,358.96 L 1040.19,358.92 L 1046.66,358.85 L 1053.13,358.71 L 1059.59,358.57 L 1066.06,358.43 L 1072.53,358.24 L 1078.99,357.93 L 1085.46,357.62 L 1091.93,357.31 L 1098.40,356.98 L 1104.86,356.59 L 1111.33,356.19 L 1117.80,355.80 L 1124.26,355.43 L 1130.73,355.24 L 1137.20,355.05 L 1143.66,354.85 L 1150.13,354.69 L 1156.60,354.88 L 1163.07,355.07 L 1169.53,355.27 L 1176.00,355.46" stroke-width="1.2" stroke-linejoin="round" stroke-linecap="round" fill="none"/>
<path d="M 96.00,397.73 L 102.47,397.73 L 108.93,397.73 L 115.40,397.73 L 121.87,397.73 L 128.34,397.73 L 134.80,397.73 L 141.27,397.73 L 147.74,397.73 L 154.20,397.73 L 160.67,397.73 L 167.14,397.73 L 173.60,397.73 L 180.07,397.73 L 186.54,397.73 L 193.01,397.73 L 199.47,397.73 L 205.94,397.73 L 212.41,397.73 L 218.87,397.73 L 225.34,397.73 L 231.81,397.73 L 238.28,397.73 L 244.74,397.73 L 251.21,397.73 L 257.68,397.73 L 264.14,397.73 L 270.61,397.73 L 277.08,397.73 L 283.54,397.73 L 290.01,397.73 L 296.48,397.73 L 302.95,397.73 L 309.41,397.73 L 315.88,397.73 L 322.35,397.73 L 328.81,397.73 L 335.28,397.73 L 341.75,397.73 L 348.22,397.73 L 354.68,397.73 L 361.15,397.73 L 367.62,397.73 L 374.08,397.73 L 380.55,397.73 L 387.02,397.73 L 393.49,397.73 L 399.95,397.73 L 406.42,397.73 L 412.89,397.73 L 419.35,397.73 L 425.82,397.73 L 432.29,397.73 L 438.75,397.73 L 445.22,397.73 L 451.69,397.73 L 458.16,397.73 L 464.62,397.73 L 471.09,397.73 L 477.56,397.73 L 484.02,397.73 L 490.49,397.73 L 496.96,397.73 L 503.43,397.73 L 509.89,397.73 L 516.36,397.73 L 522.83,397.73 L 529.29,397.73 L 535.76,397.73 L 542.23,397.73 L 548.69,397.73 L 555.16,397.73 L 561.63,397.73 L 568.10,397.73 L 574.56,397.73 L 581.03,397.73 L 587.50,397.73 L 593.96,397.73 L 600.43,397.73 L 606.90,397.73 L 613.37,397.73 L 619.83,397.73 L 626.30,397.73 L 632.77,397.73 L 639.23,397.73 L 645.70,397.73 L 652.17,397.73 L 658.63,397.73 L 665.10,397.73 L 671.57,397.73 L 678.04,397.73 L 684.50,397.73 L 690.97,397.73 L 697.44,397.73 L 703.90,397.73 L 710.37,397.73 L 716.84,397.73 L 723.31,397.73 L 729.77,397.73 L 736.24,397.73 L 742.71,397.73 L 749.17,397.73 L 755.64,397.73 L 762.11,397.73 L 768.57,397.73 L 775.04,397.73 L 781.51,397.73 L 787.98,397.73 L 794.44,397.73 L 800.91,397.73 L 807.38,397.73 L 813.84,397.73 L 820.31,397.73 L 826.78,397.73 L 833.25,397.73 L 839.71,397.73 L 846.18,397.73 L 852.65,397.73 L 859.11,397.73 L 865.58,397.73 L 872.05,397.73 L 878.51,397.73 L 884.98,397.73 L 891.45,397.73 L 897.92,397.73 L 904.38,397.73 L 910.85,397.73 L 917.32,397.73 L 923.78,397.73 L 930.25,397.73 L 936.72,397.73 L 943.19,397.73 L 949.65,397.73 L 956.12,397.73 L 962.59,397.73 L 969.05,397.73 L 975.52,397.73 L 981.99,397.73 L 988.46,397.73 L 994.92,397.73 L 1001.39,397.73 L 1007.86,397.73 L 1014.32,397.73 L 1020.79,397.73 L 1027.26,397.73 L 1033.72,397.73 L 1040.19,397.73 L 1046.66,397.73 L 1053.13,397.73 L 1059.59,397.73 L 1066.06,397.73 L 1072.53,397.73 L 1078.99,397.73 L 1085.46,397.73 L 1091.93,397.73 L 1098.40,397.73 L 1104.86,397.73 L 1111.33,397.73 L 1117.80,397.73 L 1124.26,397.73 L 1130.73,397.73 L 1137.20,397.73 L 1143.66,397.73 L 1150.13,397.73 L 1156.60,397.73 L 1163.07,397.73 L 1169.53,397.73 L 1176.00,397.73" stroke-width="1.2" stroke-linejoin="round" stroke-linecap="round" fill="none"/>
<path d="M 96.00,436.36 L 102.47,436.36 L 108.93,436.36 L 115.40,436.36 L 121.87,436.36 L 128.34,436.36 L 134.80,436.36 L 141.27,436.36 L 147.74,436.36 L 154.20,436.36 L 160.67,436.36 L 167.14,436.36 L 173.60,436.36 L 180.07,436.36 L 186.54,436.36 L 193.01,436.36 L 199.47,436.36 L 205.94,436.36 L 212.41,436.36 L 218.87,436.36 L 225.34,436.36 L 231.81,436.36 L 238.28,436.36 L 244.74,436.36 L 251.21,436.36 L 257.68,436.36 L 264.14,436.36 L 270.61,436.36 L 277.08,436.36 L 283.54,436.36 L 290.01,436.36 L 296.48,436.36 L 302.95,436.36 L 309.41,436.36 L 315.88,436.36 L 322.35,436.36 L 328.81,436.36 L 335.28,436.36 L 341.75,436.36 L 348.22,436.36 L 354.68,436.36 L 361.15,436.36 L 367.62,436.36 L 374.08,436.36 L 380.55,436.36 L 387.02,436.36 L 393.49,436.36 L 399.95,436.36 L 406.42,436.36 L 412.89,436.36 L 419.35,436.36 L 425.82,436.36 L 432.29,436.36 L 438.75,436.36 L 445.22,436.36 L 451.69,436.36 L 458.16,436.36 L 464.62,436.36 L 471.09,436.36 L 477.56,436.36 L 484.02,436.36 L 490.49,436.36 L 496.96,436.36 L 503.43,436.36 L 509.89,436.36 L 516.36,436.36 L 522.83,436.36 L 529.29,436.36 L 535.76,436.36 L 542.23,436.36 L 548.69,436.36 L 555.16,436.36 L 561.63,436.36 L 568.10,436.36 L 574.56,436.36 L 581.03,436.36 L 587.50,436.36 L 593.96,436.36 L 600.43,436.36 L 606.90,436.36 L 613.37,436.36 L 619.83,436.36 L 626.30,436.36 L 632.77,436.36 L 639.23,436.36 L 645.70,436.36 L 652.17,436.36 L 658.63,436.36 L 665.10,436.36 L 671.57,436.36 L 678.04,436.36 L 684.50,436.36 L 690.97,436.36 L 697.44,436.36 L 703.90,436.36 L 710.37,436.36 L 716.84,436.36 L 723.31,436.36 L 729.77,436.36 L 736.24,436.36 L 742.71,436.36 L 749.17,436.36 L 755.64,436.36 L 762.11,436.36 L 768.57,436.36 L 775.04,436.36 L 781.51,436.36 L 787.98,436.36 L 794.44,436.36 L 800.91,436.36 L 807.38,436.36 L 813.84,436.36 L 820.31,436.36 L 826.78,436.36 L 833.25,436.36 L 839.71,436.36 L 846.18,436.36 L 852.65,436.36 L 859.11,436.36 L 865.58,436.36 L 872.05,436.36 L 878.51,436.36 L 884.98,436.36 L 891.45,436.36 L 897.92,436.36 L 904.38,436.36 L 910.85,436.36 L 917.32,436.36 L 923.78,436.36 L 930.25,436.36 L 936.72,436.36 L 943.19,436.36 L 949.65,436.36 L 956.12,436.36 L 962.59,436.36 L 969.05,436.36 L 975.52,436.36 L 981.99,436.36 L 988.46,436.36 L 994.92,436.36 L 1001.39,436.36 L 1007.86,436.36 L 1014.32,436.36 L 1020.79,436.36 L 1027.26,436.36 L 1033.72,436.36 L 1040.19,436.36 L 1046.66,436.36 L 1053.13,436.36 L 1059.59,436.36 L 1066.06,436.36 L 1072.53,436.36 L 1078.99,436.36 L 1085.46,436.36 L 1091.93,436.36 L 1098.40,436.36 L 1104.86,436.36 L 1111.33,436.36 L 1117.80,436.36 L 1124.26,436.36 L 1130.73,436.36 L 1137.20,436.36 L 1143.66,436.36 L 1150.13,436.36 L 1156.60,436.36 L 1163.07,436.36 L 1169.53,436.36 L 1176.00,436.36" stroke-width="1.2" stroke-linejoin="round" stroke-linecap="round" fill="none"/>
<text x="24.0" y="92.6" font-family="sans-serif" font-size="12" text-anchor="start">chasenunez</text>
<text x="24.0" y="131.3" font-family="sans-serif" font-size="12" text-anchor="start">voronoi</text>
<text x="24.0" y="169.9" font-family="sans-serif" font-size="12" text-anchor="start">trmnlp</text>
<text x="24.0" y="208.5" font-family="sans-serif" font-size="12" text-anchor="start">tui_log</text>
<text x="24.0" y="247.2" font-family="sans-serif" font-size="12" text-anchor="start">sunburst_nav</text>
<text x="24.0" y="285.8" font-family="sans-serif" font-size="12" text-anchor="start">DEVO_validator</text>
<text x="24.0" y="324.5" font-family="sans-serif" font-size="12" text-anchor="start">data_HUD</text>
<text x="24.0" y="363.1" font-family="sans-serif" font-size="12" text-anchor="start">recursive_shrink</text>
<text x="24.0" y="401.7" font-family="sans-serif" font-size="12" text-anchor="start">etani_shordul</text>
<text x="24.0" y="440.4" font-family="sans-serif" font-size="12" text-anchor="start">envidat_entrails</text>
</g>
</svg>
